<svg xmlns="http://www.w3.org/2000/svg" width="1120" height="520" viewBox="0 0 1120 520"><rect width="100%" height="100%" fill="#fcfcfd"/><text x="24" y="31" font-family="system-ui,sans-serif" font-size="20" font-weight="700" fill="#111827">Persuasion authenticated leaderboard rating</text><line x1="92" y1="420.00" x2="1090" y2="420.00" stroke="#dbe3ee" stroke-width="1"/><text x="82" y="424.00" text-anchor="end" font-family="system-ui,sans-serif" font-size="12" fill="#64748b">1,760</text><line x1="92" y1="299.33" x2="1090" y2="299.33" stroke="#dbe3ee" stroke-width="1"/><text x="82" y="303.33" text-anchor="end" font-family="system-ui,sans-serif" font-size="12" fill="#64748b">1,780</text><line x1="92" y1="178.67" x2="1090" y2="178.67" stroke="#dbe3ee" stroke-width="1"/><text x="82" y="182.67" text-anchor="end" font-family="system-ui,sans-serif" font-size="12" fill="#64748b">1,800</text><line x1="92" y1="58.00" x2="1090" y2="58.00" stroke="#dbe3ee" stroke-width="1"/><text x="82" y="62.00" text-anchor="end" font-family="system-ui,sans-serif" font-size="12" fill="#64748b">1,820</text><line x1="92.00" y1="420" x2="92.00" y2="425" stroke="#64748b"/><text x="92.00" y="441" text-anchor="middle" font-family="system-ui,sans-serif" font-size="11" fill="#64748b">1</text><line x1="359.07" y1="420" x2="359.07" y2="425" stroke="#64748b"/><text x="359.07" y="441" text-anchor="middle" font-family="system-ui,sans-serif" font-size="11" fill="#64748b">20</text><line x1="640.20" y1="420" x2="640.20" y2="425" stroke="#64748b"/><text x="640.20" y="441" text-anchor="middle" font-family="system-ui,sans-serif" font-size="11" fill="#64748b">40</text><line x1="921.32" y1="420" x2="921.32" y2="425" stroke="#64748b"/><text x="921.32" y="441" text-anchor="middle" font-family="system-ui,sans-serif" font-size="11" fill="#64748b">60</text><line x1="1090.00" y1="420" x2="1090.00" y2="425" stroke="#64748b"/><text x="1090.00" y="441" text-anchor="middle" font-family="system-ui,sans-serif" font-size="11" fill="#64748b">72</text><line x1="92" y1="58" x2="92" y2="420" stroke="#64748b"/><line x1="92" y1="420" x2="1090" y2="420" stroke="#64748b"/><text x="591.00" y="502" text-anchor="middle" font-family="system-ui,sans-serif" font-size="13" fill="#64748b">Games played</text><text x="22" y="239.00" text-anchor="middle" transform="rotate(-90 22 239.00)" font-family="system-ui,sans-serif" font-size="13" fill="#64748b">Leaderboard rating</text><circle cx="92.00" cy="367.63" r="3.3" fill="#2563eb" opacity="0.82"><title>Game 1: EXPLOIT · rating 1768.68</title></circle><circle cx="106.06" cy="386.82" r="3.3" fill="#2563eb" opacity="0.82"><title>Game 2: EXPLOIT · rating 1765.50</title></circle><circle cx="120.11" cy="344.04" r="3.3" fill="#2563eb" opacity="0.82"><title>Game 3: EXPLOIT · rating 1772.59</title></circle><circle cx="134.17" cy="324.73" r="3.3" fill="#2563eb" opacity="0.82"><title>Game 4: EXPLOIT · rating 1775.79</title></circle><circle cx="148.23" cy="321.11" r="3.3" fill="#2563eb" opacity="0.82"><title>Game 5: EXPLOIT · rating 1776.39</title></circle><circle cx="162.28" cy="307.90" r="3.3" fill="#2563eb" opacity="0.82"><title>Game 6: EXPLOIT · rating 1778.58</title></circle><circle cx="176.34" cy="267.18" r="3.3" fill="#2563eb" opacity="0.82"><title>Game 7: EXPLOIT · rating 1785.33</title></circle><circle cx="190.39" cy="278.94" r="3.3" fill="#2563eb" opacity="0.82"><title>Game 8: EXPLOIT · rating 1783.38</title></circle><circle cx="204.45" cy="232.24" r="3.3" fill="#2563eb" opacity="0.82"><title>Game 9: EXPLOIT · rating 1791.12</title></circle><circle cx="218.51" cy="254.02" r="3.3" fill="#2563eb" opacity="0.82"><title>Game 10: EXPLOIT · rating 1787.51</title></circle><circle cx="232.56" cy="206.42" r="3.3" fill="#2563eb" opacity="0.82"><title>Game 11: EXPLOIT · rating 1795.40</title></circle><circle cx="246.62" cy="241.65" r="3.3" fill="#2563eb" opacity="0.82"><title>Game 12: EXPLOIT · rating 1789.56</title></circle><circle cx="260.68" cy="244.85" r="3.3" fill="#2563eb" opacity="0.82"><title>Game 13: EXPLOIT · rating 1789.03</title></circle><circle cx="274.73" cy="217.46" r="3.3" fill="#2563eb" opacity="0.82"><title>Game 14: EXPLOIT · rating 1793.57</title></circle><circle cx="288.79" cy="228.14" r="3.3" fill="#2563eb" opacity="0.82"><title>Game 15: EXPLOIT · rating 1791.80</title></circle><circle cx="302.85" cy="254.75" r="3.3" fill="#2563eb" opacity="0.82"><title>Game 16: EXPLOIT · rating 1787.39</title></circle><circle cx="316.90" cy="294.87" r="3.3" fill="#2563eb" opacity="0.82"><title>Game 17: EXPLOIT · rating 1780.74</title></circle><circle cx="330.96" cy="277.67" r="3.3" fill="#2563eb" opacity="0.82"><title>Game 18: EXPLOIT · rating 1783.59</title></circle><circle cx="345.01" cy="319.48" r="3.3" fill="#2563eb" opacity="0.82"><title>Game 19: EXPLOIT · rating 1776.66</title></circle><circle cx="359.07" cy="309.95" r="3.3" fill="#2563eb" opacity="0.82"><title>Game 20: EXPLOIT · rating 1778.24</title></circle><circle cx="373.13" cy="298.79" r="3.3" fill="#2563eb" opacity="0.82"><title>Game 21: EXPLOIT · rating 1780.09</title></circle><circle cx="387.18" cy="282.50" r="3.3" fill="#2563eb" opacity="0.82"><title>Game 22: EXPLOIT · rating 1782.79</title></circle><circle cx="401.24" cy="272.00" r="3.3" fill="#2563eb" opacity="0.82"><title>Game 23: EXPLOIT · rating 1784.53</title></circle><circle cx="415.30" cy="279.18" r="3.3" fill="#2563eb" opacity="0.82"><title>Game 24: EXPLOIT · rating 1783.34</title></circle><circle cx="429.35" cy="248.17" r="3.3" fill="#2563eb" opacity="0.82"><title>Game 25: EXPLOIT · rating 1788.48</title></circle><circle cx="443.41" cy="236.28" r="3.3" fill="#2563eb" opacity="0.82"><title>Game 26: EXPLOIT · rating 1790.45</title></circle><circle cx="457.46" cy="260.96" r="3.3" fill="#2563eb" opacity="0.82"><title>Game 27: EXPLOIT · rating 1786.36</title></circle><circle cx="471.52" cy="271.64" r="3.3" fill="#2563eb" opacity="0.82"><title>Game 28: EXPLOIT · rating 1784.59</title></circle><circle cx="485.58" cy="261.38" r="3.3" fill="#2563eb" opacity="0.82"><title>Game 29: EXPLOIT · rating 1786.29</title></circle><circle cx="499.63" cy="256.98" r="3.3" fill="#2563eb" opacity="0.82"><title>Game 30: EXPLOIT · rating 1787.02</title></circle><circle cx="513.69" cy="221.02" r="3.3" fill="#2563eb" opacity="0.82"><title>Game 31: EXPLOIT · rating 1792.98</title></circle><circle cx="527.75" cy="247.51" r="3.3" fill="#2563eb" opacity="0.82"><title>Game 32: EXPLOIT · rating 1788.59</title></circle><circle cx="541.80" cy="251.55" r="3.3" fill="#2563eb" opacity="0.82"><title>Game 33: EXPLOIT · rating 1787.92</title></circle><circle cx="555.86" cy="203.95" r="3.3" fill="#2563eb" opacity="0.82"><title>Game 34: EXPLOIT · rating 1795.81</title></circle><circle cx="569.92" cy="239.30" r="3.3" fill="#2563eb" opacity="0.82"><title>Game 35: EXPLOIT · rating 1789.95</title></circle><circle cx="583.97" cy="206.00" r="3.3" fill="#2563eb" opacity="0.82"><title>Game 36: EXPLOIT · rating 1795.47</title></circle><circle cx="598.03" cy="244.91" r="3.3" fill="#2563eb" opacity="0.82"><title>Game 37: EXPLOIT · rating 1789.02</title></circle><circle cx="612.08" cy="289.50" r="3.3" fill="#2563eb" opacity="0.82"><title>Game 38: EXPLOIT · rating 1781.63</title></circle><circle cx="626.14" cy="297.28" r="3.3" fill="#2563eb" opacity="0.82"><title>Game 39: EXPLOIT · rating 1780.34</title></circle><circle cx="640.20" cy="285.64" r="3.3" fill="#2563eb" opacity="0.82"><title>Game 40: EXPLOIT · rating 1782.27</title></circle><circle cx="654.25" cy="262.05" r="3.3" fill="#2563eb" opacity="0.82"><title>Game 41: EXPLOIT · rating 1786.18</title></circle><circle cx="668.31" cy="215.05" r="3.3" fill="#2563eb" opacity="0.82"><title>Game 42: EXPLOIT · rating 1793.97</title></circle><circle cx="682.37" cy="245.82" r="3.3" fill="#2563eb" opacity="0.82"><title>Game 43: EXPLOIT · rating 1788.87</title></circle><circle cx="696.42" cy="259.82" r="3.3" fill="#2563eb" opacity="0.82"><title>Game 44: EXPLOIT · rating 1786.55</title></circle><circle cx="710.48" cy="277.98" r="3.3" fill="#2563eb" opacity="0.82"><title>Game 45: EXPLOIT · rating 1783.54</title></circle><circle cx="724.54" cy="284.91" r="3.3" fill="#2563eb" opacity="0.82"><title>Game 46: EXPLOIT · rating 1782.39</title></circle><circle cx="738.59" cy="250.77" r="3.3" fill="#2563eb" opacity="0.82"><title>Game 47: EXPLOIT · rating 1788.05</title></circle><circle cx="752.65" cy="265.06" r="3.3" fill="#2563eb" opacity="0.82"><title>Game 48: EXPLOIT · rating 1785.68</title></circle><circle cx="766.70" cy="228.62" r="3.3" fill="#2563eb" opacity="0.82"><title>Game 49: EXPLOIT · rating 1791.72</title></circle><circle cx="780.76" cy="258.13" r="3.3" fill="#2563eb" opacity="0.82"><title>Game 50: EXPLOIT · rating 1786.83</title></circle><circle cx="794.82" cy="252.09" r="3.3" fill="#2563eb" opacity="0.82"><title>Game 51: EXPLOIT · rating 1787.83</title></circle><circle cx="808.87" cy="277.79" r="3.3" fill="#2563eb" opacity="0.82"><title>Game 52: EXPLOIT · rating 1783.57</title></circle><circle cx="822.93" cy="236.22" r="3.3" fill="#2563eb" opacity="0.82"><title>Game 53: EXPLOIT · rating 1790.46</title></circle><circle cx="836.99" cy="257.76" r="3.3" fill="#2563eb" opacity="0.82"><title>Game 54: EXPLOIT · rating 1786.89</title></circle><circle cx="851.04" cy="283.95" r="3.3" fill="#2563eb" opacity="0.82"><title>Game 55: EXPLOIT · rating 1782.55</title></circle><circle cx="865.10" cy="240.51" r="3.3" fill="#2563eb" opacity="0.82"><title>Game 56: EXPLOIT · rating 1789.75</title></circle><circle cx="879.15" cy="191.03" r="3.3" fill="#2563eb" opacity="0.82"><title>Game 57: EXPLOIT · rating 1797.95</title></circle><circle cx="893.21" cy="202.74" r="3.3" fill="#2563eb" opacity="0.82"><title>Game 58: EXPLOIT · rating 1796.01</title></circle><circle cx="907.27" cy="216.44" r="3.3" fill="#2563eb" opacity="0.82"><title>Game 59: EXPLOIT · rating 1793.74</title></circle><circle cx="921.32" cy="182.41" r="3.3" fill="#2563eb" opacity="0.82"><title>Game 60: EXPLOIT · rating 1799.38</title></circle><circle cx="935.38" cy="142.59" r="3.3" fill="#2563eb" opacity="0.82"><title>Game 61: EXPLOIT · rating 1805.98</title></circle><circle cx="949.44" cy="133.66" r="3.3" fill="#2563eb" opacity="0.82"><title>Game 62: EXPLOIT · rating 1807.46</title></circle><circle cx="963.49" cy="158.88" r="3.3" fill="#2563eb" opacity="0.82"><title>Game 63: EXPLOIT · rating 1803.28</title></circle><circle cx="977.55" cy="170.94" r="3.3" fill="#2563eb" opacity="0.82"><title>Game 64: EXPLOIT · rating 1801.28</title></circle><circle cx="991.61" cy="151.88" r="3.3" fill="#2563eb" opacity="0.82"><title>Game 65: EXPLOIT · rating 1804.44</title></circle><circle cx="1005.66" cy="183.19" r="3.3" fill="#2563eb" opacity="0.82"><title>Game 66: EXPLOIT · rating 1799.25</title></circle><circle cx="1019.72" cy="224.10" r="3.3" fill="#2563eb" opacity="0.82"><title>Game 67: EXPLOIT · rating 1792.47</title></circle><circle cx="1033.77" cy="186.63" r="3.3" fill="#2563eb" opacity="0.82"><title>Game 68: EXPLOIT · rating 1798.68</title></circle><circle cx="1047.83" cy="198.15" r="3.3" fill="#2563eb" opacity="0.82"><title>Game 69: EXPLOIT · rating 1796.77</title></circle><circle cx="1061.89" cy="150.79" r="3.3" fill="#2563eb" opacity="0.82"><title>Game 70: EXPLOIT · rating 1804.62</title></circle><circle cx="1075.94" cy="137.40" r="3.3" fill="#2563eb" opacity="0.82"><title>Game 71: EXPLOIT · rating 1806.84</title></circle><circle cx="1090.00" cy="170.76" r="3.3" fill="#2563eb" opacity="0.82"><title>Game 72: EXPLOIT · rating 1801.31</title></circle><polyline points="92.00,367.63 106.06,368.57 120.11,367.37 134.17,365.29 148.23,363.14 162.28,360.44 176.34,355.89 190.39,352.14 204.45,346.29 218.51,341.79 232.56,335.19 246.62,330.62 260.68,326.44 274.73,321.12 288.79,316.59 302.85,313.57 316.90,312.66 330.96,310.95 345.01,311.37 359.07,311.30 373.13,310.69 387.18,309.31 401.24,307.49 415.30,306.11 429.35,303.29 443.41,300.02 457.46,298.11 471.52,296.82 485.58,295.09 499.63,293.23 513.69,289.71 527.75,287.65 541.80,285.89 555.86,281.89 569.92,279.82 583.97,276.22 598.03,274.69 612.08,275.41 626.14,276.48 640.20,276.92 654.25,276.20 668.31,273.22 682.37,271.88 696.42,271.29 710.48,271.62 724.54,272.27 738.59,271.22 752.65,270.92 766.70,268.85 780.76,268.33 794.82,267.54 808.87,268.04 822.93,266.49 836.99,266.06 851.04,266.93 865.10,265.64 879.15,262.00 893.21,259.11 907.27,257.03 921.32,253.39 935.38,247.99 949.44,242.41 963.49,238.33 977.55,235.05 991.61,230.99 1005.66,228.66 1019.72,228.44 1033.77,226.40 1047.83,225.02 1061.89,221.40 1075.94,217.30 1090.00,215.03" fill="none" stroke="#111827" stroke-width="3.2" stroke-linejoin="round" stroke-linecap="round"/><circle cx="112" cy="461" r="5" fill="#f59e0b"/><text x="131" y="465" font-family="system-ui,sans-serif" font-size="11" fill="#111827">THEORY game</text><circle cx="257" cy="461" r="5" fill="#2563eb"/><text x="276" y="465" font-family="system-ui,sans-serif" font-size="11" fill="#111827">EXPLOIT game</text><line x1="395" y1="461" x2="419" y2="461" stroke="#111827" stroke-width="3"/><text x="426" y="465" font-family="system-ui,sans-serif" font-size="11" fill="#111827">EWMA span 40</text></svg>