<svg xmlns="http://www.w3.org/2000/svg" width="980" height="430" viewBox="0 0 980 430"><rect width="100%" height="100%" fill="#fcfcfd"/><text x="24" y="30" font-family="system-ui,sans-serif" font-size="19" font-weight="700" fill="#111827">Negotiation exploration e-process — positive-monetary-scale-equivalenc</text><line x1="70" y1="370" x2="950" y2="370" stroke="#94a3b8"/><line x1="70" y1="55" x2="70" y2="370" stroke="#94a3b8"/><text x="510" y="410" text-anchor="middle" font-family="system-ui,sans-serif" font-size="12" fill="#475569">valid V16 game number</text><line x1="70" y1="55.00" x2="950" y2="55.00" stroke="#dc2626" stroke-width="2" stroke-dasharray="7,5"/><text x="78" y="50.00" font-family="system-ui,sans-serif" font-size="10" fill="#dc2626">E = 20</text><circle cx="70.00" cy="363.07" r="2.3" fill="#2563eb"/><circle cx="128.67" cy="360.17" r="2.3" fill="#2563eb"/><circle cx="187.33" cy="363.24" r="2.3" fill="#2563eb"/><circle cx="246.00" cy="365.48" r="2.3" fill="#2563eb"/><circle cx="304.67" cy="363.82" r="2.3" fill="#2563eb"/><circle cx="363.33" cy="361.24" r="2.3" fill="#2563eb"/><circle cx="422.00" cy="363.95" r="2.3" fill="#2563eb"/><circle cx="480.67" cy="361.95" r="2.3" fill="#2563eb"/><circle cx="539.33" cy="364.44" r="2.3" fill="#2563eb"/><circle cx="598.00" cy="366.29" r="2.3" fill="#2563eb"/><circle cx="656.67" cy="367.70" r="2.3" fill="#2563eb"/><circle cx="715.33" cy="369.07" r="2.3" fill="#2563eb"/><circle cx="774.00" cy="369.89" r="2.3" fill="#2563eb"/><circle cx="832.67" cy="369.22" r="2.3" fill="#2563eb"/><circle cx="891.33" cy="370.00" r="2.3" fill="#2563eb"/><circle cx="950.00" cy="369.36" r="2.3" fill="#2563eb"/><circle cx="70.00" cy="356.65" r="1.8" fill="#94a3b8"/><circle cx="128.67" cy="361.77" r="1.8" fill="#94a3b8"/><circle cx="187.33" cy="359.14" r="1.8" fill="#94a3b8"/><circle cx="246.00" cy="355.81" r="1.8" fill="#94a3b8"/><circle cx="304.67" cy="360.05" r="1.8" fill="#94a3b8"/><circle cx="363.33" cy="363.85" r="1.8" fill="#94a3b8"/><circle cx="422.00" cy="361.83" r="1.8" fill="#94a3b8"/><circle cx="480.67" cy="364.35" r="1.8" fill="#94a3b8"/><circle cx="539.33" cy="362.48" r="1.8" fill="#94a3b8"/><circle cx="598.00" cy="360.15" r="1.8" fill="#94a3b8"/><circle cx="656.67" cy="357.25" r="1.8" fill="#94a3b8"/><circle cx="715.33" cy="352.67" r="1.8" fill="#94a3b8"/><circle cx="774.00" cy="347.78" r="1.8" fill="#94a3b8"/><circle cx="832.67" cy="354.04" r="1.8" fill="#94a3b8"/><circle cx="891.33" cy="349.58" r="1.8" fill="#94a3b8"/><circle cx="950.00" cy="355.26" r="1.8" fill="#94a3b8"/><polyline points="70.00,363.07 128.67,360.17 187.33,363.24 246.00,365.48 304.67,363.82 363.33,361.24 422.00,363.95 480.67,361.95 539.33,364.44 598.00,366.29 656.67,367.70 715.33,369.07 774.00,369.89 832.67,369.22 891.33,370.00 950.00,369.36" fill="none" stroke="#2563eb" stroke-width="2.5" opacity="1.0"/><polyline points="70.00,356.65 128.67,361.77 187.33,359.14 246.00,355.81 304.67,360.05 363.33,363.85 422.00,361.83 480.67,364.35 539.33,362.48 598.00,360.15 656.67,357.25 715.33,352.67 774.00,347.78 832.67,354.04 891.33,349.58 950.00,355.26" fill="none" stroke="#64748b" stroke-width="1.5" opacity="1.0" stroke-dasharray="4,3"/><text x="78" y="392" font-family="system-ui,sans-serif" font-size="11" fill="#2563eb">authoritative e-value</text><text x="220" y="392" font-family="system-ui,sans-serif" font-size="11" fill="#64748b">mirror diagnostic</text></svg>
