<svg xmlns="http://www.w3.org/2000/svg" width="1120" height="520" viewBox="0 0 1120 520"><rect width="100%" height="100%" fill="#fcfcfd"/><text x="24" y="31" font-family="system-ui,sans-serif" font-size="20" font-weight="700" fill="#111827">Bargaining normalized own payoff</text><line x1="92" y1="420.00" x2="1090" y2="420.00" stroke="#dc2626" stroke-width="2.2" stroke-dasharray="7,5"/><text x="82" y="424.00" text-anchor="end" font-family="system-ui,sans-serif" font-size="12" fill="#dc2626">0.00</text><line x1="92" y1="329.50" x2="1090" y2="329.50" stroke="#dbe3ee" stroke-width="1"/><text x="82" y="333.50" text-anchor="end" font-family="system-ui,sans-serif" font-size="12" fill="#64748b">0.25</text><line x1="92" y1="239.00" x2="1090" y2="239.00" stroke="#dbe3ee" stroke-width="1"/><text x="82" y="243.00" text-anchor="end" font-family="system-ui,sans-serif" font-size="12" fill="#64748b">0.50</text><line x1="92" y1="148.50" x2="1090" y2="148.50" stroke="#dbe3ee" stroke-width="1"/><text x="82" y="152.50" text-anchor="end" font-family="system-ui,sans-serif" font-size="12" fill="#64748b">0.75</text><line x1="92" y1="58.00" x2="1090" y2="58.00" stroke="#dbe3ee" stroke-width="1"/><text x="82" y="62.00" text-anchor="end" font-family="system-ui,sans-serif" font-size="12" fill="#64748b">1.00</text><line x1="92.00" y1="420" x2="92.00" y2="425" stroke="#64748b"/><text x="92.00" y="441" text-anchor="middle" font-family="system-ui,sans-serif" font-size="11" fill="#64748b">1</text><line x1="289.52" y1="420" x2="289.52" y2="425" stroke="#64748b"/><text x="289.52" y="441" text-anchor="middle" font-family="system-ui,sans-serif" font-size="11" fill="#64748b">20</text><line x1="497.44" y1="420" x2="497.44" y2="425" stroke="#64748b"/><text x="497.44" y="441" text-anchor="middle" font-family="system-ui,sans-serif" font-size="11" fill="#64748b">40</text><line x1="705.35" y1="420" x2="705.35" y2="425" stroke="#64748b"/><text x="705.35" y="441" text-anchor="middle" font-family="system-ui,sans-serif" font-size="11" fill="#64748b">60</text><line x1="913.27" y1="420" x2="913.27" y2="425" stroke="#64748b"/><text x="913.27" y="441" text-anchor="middle" font-family="system-ui,sans-serif" font-size="11" fill="#64748b">80</text><line x1="1090.00" y1="420" x2="1090.00" y2="425" stroke="#64748b"/><text x="1090.00" y="441" text-anchor="middle" font-family="system-ui,sans-serif" font-size="11" fill="#64748b">97</text><line x1="92" y1="58" x2="92" y2="420" stroke="#64748b"/><line x1="92" y1="420" x2="1090" y2="420" stroke="#64748b"/><text x="591.00" y="502" text-anchor="middle" font-family="system-ui,sans-serif" font-size="13" fill="#64748b">Games played</text><text x="22" y="239.00" text-anchor="middle" transform="rotate(-90 22 239.00)" font-family="system-ui,sans-serif" font-size="13" fill="#64748b">Normalized own payoff</text><text x="1086" y="436.00" text-anchor="end" font-family="system-ui,sans-serif" font-size="11" font-weight="700" fill="#dc2626">zero payoff</text><circle cx="92.00" cy="313.12" r="2.5" fill="#2563eb" opacity="0.48"><title>Game 1: EXPLOIT · payoff 0.2952</title></circle><circle cx="102.40" cy="305.61" r="2.5" fill="#2563eb" opacity="0.48"><title>Game 2: EXPLOIT · payoff 0.3160</title></circle><circle cx="112.79" cy="166.60" r="2.5" fill="#2563eb" opacity="0.48"><title>Game 3: EXPLOIT · payoff 0.7000</title></circle><circle cx="123.19" cy="202.80" r="2.5" fill="#2563eb" opacity="0.48"><title>Game 4: EXPLOIT · payoff 0.6000</title></circle><circle cx="133.58" cy="265.36" r="2.5" fill="#2563eb" opacity="0.48"><title>Game 5: EXPLOIT · payoff 0.4272</title></circle><circle cx="143.98" cy="248.52" r="2.5" fill="#2563eb" opacity="0.48"><title>Game 6: EXPLOIT · payoff 0.4737</title></circle><circle cx="154.38" cy="246.49" r="2.5" fill="#2563eb" opacity="0.48"><title>Game 7: EXPLOIT · payoff 0.4793</title></circle><circle cx="164.77" cy="239.00" r="2.5" fill="#2563eb" opacity="0.48"><title>Game 8: EXPLOIT · payoff 0.5000</title></circle><circle cx="175.17" cy="239.00" r="2.5" fill="#2563eb" opacity="0.48"><title>Game 9: EXPLOIT · payoff 0.5000</title></circle><circle cx="185.56" cy="248.52" r="2.5" fill="#2563eb" opacity="0.48"><title>Game 10: EXPLOIT · payoff 0.4737</title></circle><circle cx="195.96" cy="257.10" r="2.5" fill="#2563eb" opacity="0.48"><title>Game 11: EXPLOIT · payoff 0.4500</title></circle><circle cx="206.35" cy="166.60" r="2.5" fill="#2563eb" opacity="0.48"><title>Game 12: EXPLOIT · payoff 0.7000</title></circle><circle cx="216.75" cy="239.00" r="2.5" fill="#2563eb" opacity="0.48"><title>Game 13: EXPLOIT · payoff 0.5000</title></circle><circle cx="227.15" cy="259.11" r="2.5" fill="#2563eb" opacity="0.48"><title>Game 14: EXPLOIT · payoff 0.4444</title></circle><circle cx="237.54" cy="239.00" r="2.5" fill="#2563eb" opacity="0.48"><title>Game 15: EXPLOIT · payoff 0.5000</title></circle><circle cx="247.94" cy="166.60" r="2.5" fill="#2563eb" opacity="0.48"><title>Game 16: EXPLOIT · payoff 0.7000</title></circle><circle cx="258.33" cy="420.00" r="2.5" fill="#2563eb" opacity="0.48"><title>Game 17: EXPLOIT · payoff 0.0000</title></circle><circle cx="268.73" cy="248.05" r="2.5" fill="#2563eb" opacity="0.48"><title>Game 18: EXPLOIT · payoff 0.4750</title></circle><circle cx="279.12" cy="233.78" r="2.5" fill="#2563eb" opacity="0.48"><title>Game 19: EXPLOIT · payoff 0.5144</title></circle><circle cx="289.52" cy="282.44" r="2.5" fill="#2563eb" opacity="0.48"><title>Game 20: EXPLOIT · payoff 0.3800</title></circle><circle cx="299.92" cy="420.00" r="2.5" fill="#2563eb" opacity="0.48"><title>Game 21: EXPLOIT · payoff 0.0000</title></circle><circle cx="310.31" cy="304.16" r="2.5" fill="#2563eb" opacity="0.48"><title>Game 22: EXPLOIT · payoff 0.3200</title></circle><circle cx="320.71" cy="276.65" r="2.5" fill="#2563eb" opacity="0.48"><title>Game 23: EXPLOIT · payoff 0.3960</title></circle><circle cx="331.10" cy="239.00" r="2.5" fill="#2563eb" opacity="0.48"><title>Game 24: EXPLOIT · payoff 0.5000</title></circle><circle cx="341.50" cy="239.00" r="2.5" fill="#2563eb" opacity="0.48"><title>Game 25: EXPLOIT · payoff 0.5000</title></circle><circle cx="351.90" cy="137.64" r="2.5" fill="#2563eb" opacity="0.48"><title>Game 26: EXPLOIT · payoff 0.7800</title></circle><circle cx="362.29" cy="248.05" r="2.5" fill="#2563eb" opacity="0.48"><title>Game 27: EXPLOIT · payoff 0.4750</title></circle><circle cx="372.69" cy="239.00" r="2.5" fill="#2563eb" opacity="0.48"><title>Game 28: EXPLOIT · payoff 0.5000</title></circle><circle cx="383.08" cy="239.00" r="2.5" fill="#2563eb" opacity="0.48"><title>Game 29: EXPLOIT · payoff 0.5000</title></circle><circle cx="393.48" cy="231.76" r="2.5" fill="#2563eb" opacity="0.48"><title>Game 30: EXPLOIT · payoff 0.5200</title></circle><circle cx="403.88" cy="239.00" r="2.5" fill="#2563eb" opacity="0.48"><title>Game 31: EXPLOIT · payoff 0.5000</title></circle><circle cx="414.27" cy="256.86" r="2.5" fill="#2563eb" opacity="0.48"><title>Game 32: EXPLOIT · payoff 0.4507</title></circle><circle cx="424.67" cy="420.00" r="2.5" fill="#2563eb" opacity="0.48"><title>Game 33: EXPLOIT · payoff 0.0000</title></circle><circle cx="435.06" cy="239.00" r="2.5" fill="#2563eb" opacity="0.48"><title>Game 34: EXPLOIT · payoff 0.5000</title></circle><circle cx="445.46" cy="420.00" r="2.5" fill="#2563eb" opacity="0.48"><title>Game 35: EXPLOIT · payoff 0.0000</title></circle><circle cx="455.85" cy="239.00" r="2.5" fill="#2563eb" opacity="0.48"><title>Game 36: EXPLOIT · payoff 0.5000</title></circle><circle cx="466.25" cy="239.00" r="2.5" fill="#2563eb" opacity="0.48"><title>Game 37: EXPLOIT · payoff 0.5000</title></circle><circle cx="476.65" cy="309.95" r="2.5" fill="#2563eb" opacity="0.48"><title>Game 38: EXPLOIT · payoff 0.3040</title></circle><circle cx="487.04" cy="239.00" r="2.5" fill="#2563eb" opacity="0.48"><title>Game 39: EXPLOIT · payoff 0.5000</title></circle><circle cx="497.44" cy="239.00" r="2.5" fill="#2563eb" opacity="0.48"><title>Game 40: EXPLOIT · payoff 0.5000</title></circle><circle cx="507.83" cy="311.40" r="2.5" fill="#2563eb" opacity="0.48"><title>Game 41: EXPLOIT · payoff 0.3000</title></circle><circle cx="518.23" cy="279.05" r="2.5" fill="#2563eb" opacity="0.48"><title>Game 42: EXPLOIT · payoff 0.3894</title></circle><circle cx="528.62" cy="248.05" r="2.5" fill="#2563eb" opacity="0.48"><title>Game 43: EXPLOIT · payoff 0.4750</title></circle><circle cx="539.02" cy="239.00" r="2.5" fill="#2563eb" opacity="0.48"><title>Game 44: EXPLOIT · payoff 0.5000</title></circle><circle cx="549.42" cy="202.80" r="2.5" fill="#2563eb" opacity="0.48"><title>Game 45: EXPLOIT · payoff 0.6000</title></circle><circle cx="559.81" cy="239.00" r="2.5" fill="#2563eb" opacity="0.48"><title>Game 46: EXPLOIT · payoff 0.5000</title></circle><circle cx="570.21" cy="239.00" r="2.5" fill="#2563eb" opacity="0.48"><title>Game 47: EXPLOIT · payoff 0.5000</title></circle><circle cx="580.60" cy="420.00" r="2.5" fill="#2563eb" opacity="0.48"><title>Game 48: EXPLOIT · payoff 0.0000</title></circle><circle cx="591.00" cy="248.53" r="2.5" fill="#2563eb" opacity="0.48"><title>Game 49: EXPLOIT · payoff 0.4737</title></circle><circle cx="601.40" cy="239.00" r="2.5" fill="#2563eb" opacity="0.48"><title>Game 50: EXPLOIT · payoff 0.5000</title></circle><circle cx="611.79" cy="202.80" r="2.5" fill="#2563eb" opacity="0.48"><title>Game 51: EXPLOIT · payoff 0.6000</title></circle><circle cx="622.19" cy="315.74" r="2.5" fill="#2563eb" opacity="0.48"><title>Game 52: EXPLOIT · payoff 0.2880</title></circle><circle cx="632.58" cy="202.80" r="2.5" fill="#2563eb" opacity="0.48"><title>Game 53: EXPLOIT · payoff 0.6000</title></circle><circle cx="642.98" cy="166.60" r="2.5" fill="#2563eb" opacity="0.48"><title>Game 54: EXPLOIT · payoff 0.7000</title></circle><circle cx="653.38" cy="248.05" r="2.5" fill="#2563eb" opacity="0.48"><title>Game 55: EXPLOIT · payoff 0.4750</title></circle><circle cx="663.77" cy="349.88" r="2.5" fill="#2563eb" opacity="0.48"><title>Game 56: EXPLOIT · payoff 0.1937</title></circle><circle cx="674.17" cy="239.00" r="2.5" fill="#2563eb" opacity="0.48"><title>Game 57: EXPLOIT · payoff 0.5000</title></circle><circle cx="684.56" cy="239.00" r="2.5" fill="#2563eb" opacity="0.48"><title>Game 58: EXPLOIT · payoff 0.5000</title></circle><circle cx="694.96" cy="239.00" r="2.5" fill="#2563eb" opacity="0.48"><title>Game 59: EXPLOIT · payoff 0.5000</title></circle><circle cx="705.35" cy="239.00" r="2.5" fill="#2563eb" opacity="0.48"><title>Game 60: EXPLOIT · payoff 0.5000</title></circle><circle cx="715.75" cy="239.00" r="2.5" fill="#2563eb" opacity="0.48"><title>Game 61: EXPLOIT · payoff 0.5000</title></circle><circle cx="726.15" cy="239.00" r="2.5" fill="#2563eb" opacity="0.48"><title>Game 62: EXPLOIT · payoff 0.5000</title></circle><circle cx="736.54" cy="239.00" r="2.5" fill="#2563eb" opacity="0.48"><title>Game 63: EXPLOIT · payoff 0.5000</title></circle><circle cx="746.94" cy="248.52" r="2.5" fill="#2563eb" opacity="0.48"><title>Game 64: EXPLOIT · payoff 0.4737</title></circle><circle cx="757.33" cy="233.78" r="2.5" fill="#2563eb" opacity="0.48"><title>Game 65: EXPLOIT · payoff 0.5144</title></circle><circle cx="767.73" cy="239.00" r="2.5" fill="#2563eb" opacity="0.48"><title>Game 66: EXPLOIT · payoff 0.5000</title></circle><circle cx="778.12" cy="299.92" r="2.5" fill="#2563eb" opacity="0.48"><title>Game 67: EXPLOIT · payoff 0.3317</title></circle><circle cx="788.52" cy="239.00" r="2.5" fill="#2563eb" opacity="0.48"><title>Game 68: EXPLOIT · payoff 0.5000</title></circle><circle cx="798.92" cy="202.80" r="2.5" fill="#2563eb" opacity="0.48"><title>Game 69: EXPLOIT · payoff 0.6000</title></circle><circle cx="809.31" cy="202.80" r="2.5" fill="#2563eb" opacity="0.48"><title>Game 70: EXPLOIT · payoff 0.6000</title></circle><circle cx="819.71" cy="239.00" r="2.5" fill="#2563eb" opacity="0.48"><title>Game 71: EXPLOIT · payoff 0.5000</title></circle><circle cx="830.10" cy="202.44" r="2.5" fill="#2563eb" opacity="0.48"><title>Game 72: EXPLOIT · payoff 0.6010</title></circle><circle cx="840.50" cy="248.53" r="2.5" fill="#2563eb" opacity="0.48"><title>Game 73: EXPLOIT · payoff 0.4737</title></circle><circle cx="850.90" cy="179.27" r="2.5" fill="#2563eb" opacity="0.48"><title>Game 74: EXPLOIT · payoff 0.6650</title></circle><circle cx="861.29" cy="239.00" r="2.5" fill="#2563eb" opacity="0.48"><title>Game 75: EXPLOIT · payoff 0.5000</title></circle><circle cx="871.69" cy="246.24" r="2.5" fill="#2563eb" opacity="0.48"><title>Game 76: EXPLOIT · payoff 0.4800</title></circle><circle cx="882.08" cy="239.00" r="2.5" fill="#2563eb" opacity="0.48"><title>Game 77: EXPLOIT · payoff 0.5000</title></circle><circle cx="892.48" cy="265.35" r="2.5" fill="#2563eb" opacity="0.48"><title>Game 78: EXPLOIT · payoff 0.4272</title></circle><circle cx="902.88" cy="304.16" r="2.5" fill="#2563eb" opacity="0.48"><title>Game 79: EXPLOIT · payoff 0.3200</title></circle><circle cx="913.27" cy="347.60" r="2.5" fill="#2563eb" opacity="0.48"><title>Game 80: EXPLOIT · payoff 0.2000</title></circle><circle cx="923.67" cy="239.00" r="2.5" fill="#2563eb" opacity="0.48"><title>Game 81: EXPLOIT · payoff 0.5000</title></circle><circle cx="934.06" cy="391.04" r="2.5" fill="#2563eb" opacity="0.48"><title>Game 82: EXPLOIT · payoff 0.0800</title></circle><circle cx="944.46" cy="166.60" r="2.5" fill="#2563eb" opacity="0.48"><title>Game 83: EXPLOIT · payoff 0.7000</title></circle><circle cx="954.85" cy="164.79" r="2.5" fill="#2563eb" opacity="0.48"><title>Game 84: EXPLOIT · payoff 0.7050</title></circle><circle cx="965.25" cy="305.61" r="2.5" fill="#2563eb" opacity="0.48"><title>Game 85: EXPLOIT · payoff 0.3160</title></circle><circle cx="975.65" cy="298.37" r="2.5" fill="#2563eb" opacity="0.48"><title>Game 86: EXPLOIT · payoff 0.3360</title></circle><circle cx="986.04" cy="202.80" r="2.5" fill="#2563eb" opacity="0.48"><title>Game 87: EXPLOIT · payoff 0.6000</title></circle><circle cx="996.44" cy="239.00" r="2.5" fill="#2563eb" opacity="0.48"><title>Game 88: EXPLOIT · payoff 0.5000</title></circle><circle cx="1006.83" cy="239.00" r="2.5" fill="#2563eb" opacity="0.48"><title>Game 89: EXPLOIT · payoff 0.5000</title></circle><circle cx="1017.23" cy="257.10" r="2.5" fill="#2563eb" opacity="0.48"><title>Game 90: EXPLOIT · payoff 0.4500</title></circle><circle cx="1027.62" cy="166.60" r="2.5" fill="#2563eb" opacity="0.48"><title>Game 91: EXPLOIT · payoff 0.7000</title></circle><circle cx="1038.02" cy="420.00" r="2.5" fill="#2563eb" opacity="0.48"><title>Game 92: EXPLOIT · payoff 0.0000</title></circle><circle cx="1048.42" cy="202.80" r="2.5" fill="#2563eb" opacity="0.48"><title>Game 93: EXPLOIT · payoff 0.6000</title></circle><circle cx="1058.81" cy="239.00" r="2.5" fill="#2563eb" opacity="0.48"><title>Game 94: EXPLOIT · payoff 0.5000</title></circle><circle cx="1069.21" cy="333.30" r="2.5" fill="#2563eb" opacity="0.48"><title>Game 95: EXPLOIT · payoff 0.2395</title></circle><circle cx="1079.60" cy="346.31" r="2.5" fill="#2563eb" opacity="0.48"><title>Game 96: EXPLOIT · payoff 0.2036</title></circle><circle cx="1090.00" cy="202.80" r="2.5" fill="#2563eb" opacity="0.48"><title>Game 97: EXPLOIT · payoff 0.6000</title></circle><polyline points="185.56,247.50 289.52,251.17 393.48,257.43 497.44,284.08 601.40,266.58 705.35,244.19 809.31,238.28 913.27,251.06 1017.23,250.33" fill="none" stroke="#7c3aed" stroke-width="2.2" stroke-linejoin="round" stroke-linecap="round"/><polyline points="92.00,313.12 102.40,312.64 112.79,303.21 123.19,296.74 133.58,294.71 143.98,291.73 154.38,288.81 164.77,285.60 175.17,282.59 185.56,280.39 195.96,278.89 206.35,271.65 216.75,269.54 227.15,268.87 237.54,266.94 247.94,260.47 258.33,270.76 268.73,269.29 279.12,267.00 289.52,268.00 299.92,277.81 310.31,279.51 320.71,279.32 331.10,276.72 341.50,274.29 351.90,265.47 362.29,264.35 372.69,262.71 383.08,261.18 393.48,259.28 403.88,257.97 414.27,257.90 424.67,268.36 435.06,266.47 445.46,276.37 455.85,273.96 466.25,271.71 476.65,274.17 487.04,271.90 497.44,269.78 507.83,272.47 518.23,272.89 528.62,271.29 539.02,269.20 549.42,264.92 559.81,263.25 570.21,261.68 580.60,271.90 591.00,270.39 601.40,268.36 611.79,264.13 622.19,267.46 632.58,263.29 642.98,257.05 653.38,256.47 663.77,262.50 674.17,260.98 684.56,259.57 694.96,258.24 705.35,257.00 715.75,255.84 726.15,254.75 736.54,253.73 746.94,253.40 757.33,252.13 767.73,251.28 778.12,254.42 788.52,253.43 798.92,250.16 809.31,247.11 819.71,246.58 830.10,243.73 840.50,244.04 850.90,239.86 861.29,239.81 871.69,240.22 882.08,240.14 892.48,241.77 902.88,245.80 913.27,252.36 923.67,251.50 934.06,260.50 944.46,254.45 954.85,248.66 965.25,252.34 975.65,255.31 986.04,251.92 996.44,251.08 1006.83,250.31 1017.23,250.74 1027.62,245.31 1038.02,256.58 1048.42,253.11 1058.81,252.20 1069.21,257.44 1079.60,263.17 1090.00,259.28" fill="none" stroke="#111827" stroke-width="3.2" stroke-linejoin="round" stroke-linecap="round"/><polyline points="601.40,261.35 611.79,259.15 622.19,259.35 632.58,260.07 642.98,259.35 653.38,259.00 663.77,261.03 674.17,260.88 684.56,260.88 694.96,260.88 705.35,260.69 715.75,260.33 726.15,261.77 736.54,261.77 746.94,261.56 757.33,261.46 767.73,262.91 778.12,260.50 788.52,260.32 798.92,259.70 809.31,258.11 819.71,254.49 830.10,252.46 840.50,251.89 850.90,250.70 861.29,250.70 871.69,252.87 882.08,252.69 892.48,253.22 902.88,254.52 913.27,256.84 923.67,256.84 934.06,259.52 944.46,254.45 954.85,252.97 965.25,250.68 975.65,251.87 986.04,251.15 996.44,249.73 1006.83,249.73 1017.23,250.09 1027.62,247.19 1038.02,250.01 1048.42,249.11 1058.81,249.11 1069.21,251.72 1079.60,253.86 1090.00,253.14" fill="none" stroke="#059669" stroke-width="2.2" stroke-linejoin="round" stroke-linecap="round" stroke-dasharray="7,5"/><circle cx="112" cy="461" r="5" fill="#f59e0b"/><text x="131" y="465" font-family="system-ui,sans-serif" font-size="11" fill="#111827">THEORY game</text><circle cx="242" cy="461" r="5" fill="#2563eb"/><text x="261" y="465" font-family="system-ui,sans-serif" font-size="11" fill="#111827">EXPLOIT game</text><line x1="370" y1="461" x2="394" y2="461" stroke="#7c3aed" stroke-width="3"/><text x="401" y="465" font-family="system-ui,sans-serif" font-size="11" fill="#111827">10-game block mean</text><line x1="555" y1="461" x2="579" y2="461" stroke="#111827" stroke-width="3"/><text x="586" y="465" font-family="system-ui,sans-serif" font-size="11" fill="#111827">EWMA span 30</text><line x1="710" y1="461" x2="734" y2="461" stroke="#059669" stroke-width="3" stroke-dasharray="7,5"/><text x="741" y="465" font-family="system-ui,sans-serif" font-size="11" fill="#111827">rolling 50</text></svg>