<svg xmlns="http://www.w3.org/2000/svg" width="1120" height="520" viewBox="0 0 1120 520"><rect width="100%" height="100%" fill="#fcfcfd"/><text x="24" y="31" font-family="system-ui,sans-serif" font-size="20" font-weight="700" fill="#111827">Bargaining normalized own payoff</text><line x1="92" y1="420.00" x2="1090" y2="420.00" stroke="#dc2626" stroke-width="2.2" stroke-dasharray="7,5"/><text x="82" y="424.00" text-anchor="end" font-family="system-ui,sans-serif" font-size="12" fill="#dc2626">0.00</text><line x1="92" y1="329.50" x2="1090" y2="329.50" stroke="#dbe3ee" stroke-width="1"/><text x="82" y="333.50" text-anchor="end" font-family="system-ui,sans-serif" font-size="12" fill="#64748b">0.25</text><line x1="92" y1="239.00" x2="1090" y2="239.00" stroke="#dbe3ee" stroke-width="1"/><text x="82" y="243.00" text-anchor="end" font-family="system-ui,sans-serif" font-size="12" fill="#64748b">0.50</text><line x1="92" y1="148.50" x2="1090" y2="148.50" stroke="#dbe3ee" stroke-width="1"/><text x="82" y="152.50" text-anchor="end" font-family="system-ui,sans-serif" font-size="12" fill="#64748b">0.75</text><line x1="92" y1="58.00" x2="1090" y2="58.00" stroke="#dbe3ee" stroke-width="1"/><text x="82" y="62.00" text-anchor="end" font-family="system-ui,sans-serif" font-size="12" fill="#64748b">1.00</text><line x1="92.00" y1="420" x2="92.00" y2="425" stroke="#64748b"/><text x="92.00" y="441" text-anchor="middle" font-family="system-ui,sans-serif" font-size="11" fill="#64748b">1</text><line x1="289.52" y1="420" x2="289.52" y2="425" stroke="#64748b"/><text x="289.52" y="441" text-anchor="middle" font-family="system-ui,sans-serif" font-size="11" fill="#64748b">20</text><line x1="497.44" y1="420" x2="497.44" y2="425" stroke="#64748b"/><text x="497.44" y="441" text-anchor="middle" font-family="system-ui,sans-serif" font-size="11" fill="#64748b">40</text><line x1="705.35" y1="420" x2="705.35" y2="425" stroke="#64748b"/><text x="705.35" y="441" text-anchor="middle" font-family="system-ui,sans-serif" font-size="11" fill="#64748b">60</text><line x1="913.27" y1="420" x2="913.27" y2="425" stroke="#64748b"/><text x="913.27" y="441" text-anchor="middle" font-family="system-ui,sans-serif" font-size="11" fill="#64748b">80</text><line x1="1090.00" y1="420" x2="1090.00" y2="425" stroke="#64748b"/><text x="1090.00" y="441" text-anchor="middle" font-family="system-ui,sans-serif" font-size="11" fill="#64748b">97</text><line x1="92" y1="58" x2="92" y2="420" stroke="#64748b"/><line x1="92" y1="420" x2="1090" y2="420" stroke="#64748b"/><text x="591.00" y="502" text-anchor="middle" font-family="system-ui,sans-serif" font-size="13" fill="#64748b">Games played</text><text x="22" y="239.00" text-anchor="middle" transform="rotate(-90 22 239.00)" font-family="system-ui,sans-serif" font-size="13" fill="#64748b">Normalized own payoff</text><text x="1086" y="436.00" text-anchor="end" font-family="system-ui,sans-serif" font-size="11" font-weight="700" fill="#dc2626">zero payoff</text><circle cx="92.00" cy="283.27" r="2.5" fill="#f59e0b" opacity="0.48"><title>Game 1: THEORY · payoff 0.3777</title></circle><circle cx="102.40" cy="267.96" r="2.5" fill="#f59e0b" opacity="0.48"><title>Game 2: THEORY · payoff 0.4200</title></circle><circle cx="112.79" cy="267.87" r="2.5" fill="#f59e0b" opacity="0.48"><title>Game 3: THEORY · payoff 0.4202</title></circle><circle cx="123.19" cy="420.00" r="2.5" fill="#f59e0b" opacity="0.48"><title>Game 4: THEORY · payoff 0.0000</title></circle><circle cx="133.58" cy="147.74" r="2.5" fill="#f59e0b" opacity="0.48"><title>Game 5: THEORY · payoff 0.7521</title></circle><circle cx="143.98" cy="257.75" r="2.5" fill="#f59e0b" opacity="0.48"><title>Game 6: THEORY · payoff 0.4482</title></circle><circle cx="154.38" cy="247.60" r="2.5" fill="#f59e0b" opacity="0.48"><title>Game 7: THEORY · payoff 0.4763</title></circle><circle cx="164.77" cy="239.00" r="2.5" fill="#2563eb" opacity="0.48"><title>Game 8: EXPLOIT · payoff 0.5000</title></circle><circle cx="175.17" cy="273.39" r="2.5" fill="#2563eb" opacity="0.48"><title>Game 9: EXPLOIT · payoff 0.4050</title></circle><circle cx="185.56" cy="239.00" r="2.5" fill="#2563eb" opacity="0.48"><title>Game 10: EXPLOIT · payoff 0.5000</title></circle><circle cx="195.96" cy="267.89" r="2.5" fill="#f59e0b" opacity="0.48"><title>Game 11: THEORY · payoff 0.4202</title></circle><circle cx="206.35" cy="295.18" r="2.5" fill="#f59e0b" opacity="0.48"><title>Game 12: THEORY · payoff 0.3448</title></circle><circle cx="216.75" cy="197.45" r="2.5" fill="#f59e0b" opacity="0.48"><title>Game 13: THEORY · payoff 0.6148</title></circle><circle cx="227.15" cy="295.94" r="2.5" fill="#f59e0b" opacity="0.48"><title>Game 14: THEORY · payoff 0.3427</title></circle><circle cx="237.54" cy="270.68" r="2.5" fill="#f59e0b" opacity="0.48"><title>Game 15: THEORY · payoff 0.4125</title></circle><circle cx="247.94" cy="279.76" r="2.5" fill="#f59e0b" opacity="0.48"><title>Game 16: THEORY · payoff 0.3874</title></circle><circle cx="258.33" cy="264.34" r="2.5" fill="#2563eb" opacity="0.48"><title>Game 17: EXPLOIT · payoff 0.4300</title></circle><circle cx="268.73" cy="239.00" r="2.5" fill="#f59e0b" opacity="0.48"><title>Game 18: THEORY · payoff 0.5000</title></circle><circle cx="279.12" cy="271.76" r="2.5" fill="#f59e0b" opacity="0.48"><title>Game 19: THEORY · payoff 0.4095</title></circle><circle cx="289.52" cy="227.63" r="2.5" fill="#f59e0b" opacity="0.48"><title>Game 20: THEORY · payoff 0.5314</title></circle><circle cx="299.92" cy="239.00" r="2.5" fill="#2563eb" opacity="0.48"><title>Game 21: EXPLOIT · payoff 0.5000</title></circle><circle cx="310.31" cy="234.36" r="2.5" fill="#f59e0b" opacity="0.48"><title>Game 22: THEORY · payoff 0.5128</title></circle><circle cx="320.71" cy="202.80" r="2.5" fill="#2563eb" opacity="0.48"><title>Game 23: EXPLOIT · payoff 0.6000</title></circle><circle cx="331.10" cy="420.00" r="2.5" fill="#f59e0b" opacity="0.48"><title>Game 24: THEORY · payoff 0.0000</title></circle><circle cx="341.50" cy="239.00" r="2.5" fill="#f59e0b" opacity="0.48"><title>Game 25: THEORY · payoff 0.5000</title></circle><circle cx="351.90" cy="226.37" r="2.5" fill="#f59e0b" opacity="0.48"><title>Game 26: THEORY · payoff 0.5349</title></circle><circle cx="362.29" cy="420.00" r="2.5" fill="#2563eb" opacity="0.48"><title>Game 27: EXPLOIT · payoff 0.0000</title></circle><circle cx="372.69" cy="324.10" r="2.5" fill="#f59e0b" opacity="0.48"><title>Game 28: THEORY · payoff 0.2649</title></circle><circle cx="383.08" cy="420.00" r="2.5" fill="#2563eb" opacity="0.48"><title>Game 29: EXPLOIT · payoff 0.0000</title></circle><circle cx="393.48" cy="318.64" r="2.5" fill="#f59e0b" opacity="0.48"><title>Game 30: THEORY · payoff 0.2800</title></circle><circle cx="403.88" cy="259.09" r="2.5" fill="#f59e0b" opacity="0.48"><title>Game 31: THEORY · payoff 0.4445</title></circle><circle cx="414.27" cy="420.00" r="2.5" fill="#f59e0b" opacity="0.48"><title>Game 32: THEORY · payoff 0.0000</title></circle><circle cx="424.67" cy="248.41" r="2.5" fill="#f59e0b" opacity="0.48"><title>Game 33: THEORY · payoff 0.4740</title></circle><circle cx="435.06" cy="231.76" r="2.5" fill="#f59e0b" opacity="0.48"><title>Game 34: THEORY · payoff 0.5200</title></circle><circle cx="445.46" cy="248.05" r="2.5" fill="#2563eb" opacity="0.48"><title>Game 35: EXPLOIT · payoff 0.4750</title></circle><circle cx="455.85" cy="295.17" r="2.5" fill="#f59e0b" opacity="0.48"><title>Game 36: THEORY · payoff 0.3448</title></circle><circle cx="466.25" cy="420.00" r="2.5" fill="#2563eb" opacity="0.48"><title>Game 37: EXPLOIT · payoff 0.0000</title></circle><circle cx="476.65" cy="404.82" r="2.5" fill="#f59e0b" opacity="0.48"><title>Game 38: THEORY · payoff 0.0419</title></circle><circle cx="487.04" cy="304.34" r="2.5" fill="#f59e0b" opacity="0.48"><title>Game 39: THEORY · payoff 0.3195</title></circle><circle cx="497.44" cy="232.70" r="2.5" fill="#f59e0b" opacity="0.48"><title>Game 40: THEORY · payoff 0.5174</title></circle><circle cx="507.83" cy="246.24" r="2.5" fill="#f59e0b" opacity="0.48"><title>Game 41: THEORY · payoff 0.4800</title></circle><circle cx="518.23" cy="331.82" r="2.5" fill="#f59e0b" opacity="0.48"><title>Game 42: THEORY · payoff 0.2436</title></circle><circle cx="528.62" cy="254.93" r="2.5" fill="#2563eb" opacity="0.48"><title>Game 43: EXPLOIT · payoff 0.4560</title></circle><circle cx="539.02" cy="152.90" r="2.5" fill="#f59e0b" opacity="0.48"><title>Game 44: THEORY · payoff 0.7379</title></circle><circle cx="549.42" cy="348.81" r="2.5" fill="#f59e0b" opacity="0.48"><title>Game 45: THEORY · payoff 0.1967</title></circle><circle cx="559.81" cy="227.62" r="2.5" fill="#f59e0b" opacity="0.48"><title>Game 46: THEORY · payoff 0.5314</title></circle><circle cx="570.21" cy="250.38" r="2.5" fill="#f59e0b" opacity="0.48"><title>Game 47: THEORY · payoff 0.4686</title></circle><circle cx="580.60" cy="420.00" r="2.5" fill="#f59e0b" opacity="0.48"><title>Game 48: THEORY · payoff 0.0000</title></circle><circle cx="591.00" cy="378.80" r="2.5" fill="#2563eb" opacity="0.48"><title>Game 49: EXPLOIT · payoff 0.1138</title></circle><circle cx="601.40" cy="152.90" r="2.5" fill="#f59e0b" opacity="0.48"><title>Game 50: THEORY · payoff 0.7379</title></circle><circle cx="611.79" cy="166.60" r="2.5" fill="#2563eb" opacity="0.48"><title>Game 51: EXPLOIT · payoff 0.7000</title></circle><circle cx="622.19" cy="420.00" r="2.5" fill="#f59e0b" opacity="0.48"><title>Game 52: THEORY · payoff 0.0000</title></circle><circle cx="632.58" cy="239.00" r="2.5" fill="#2563eb" opacity="0.48"><title>Game 53: EXPLOIT · payoff 0.5000</title></circle><circle cx="642.98" cy="398.33" r="2.5" fill="#f59e0b" opacity="0.48"><title>Game 54: THEORY · payoff 0.0599</title></circle><circle cx="653.38" cy="420.00" r="2.5" fill="#f59e0b" opacity="0.48"><title>Game 55: THEORY · payoff 0.0000</title></circle><circle cx="663.77" cy="352.78" r="2.5" fill="#f59e0b" opacity="0.48"><title>Game 56: THEORY · payoff 0.1857</title></circle><circle cx="674.17" cy="248.53" r="2.5" fill="#2563eb" opacity="0.48"><title>Game 57: EXPLOIT · payoff 0.4737</title></circle><circle cx="684.56" cy="218.87" r="2.5" fill="#f59e0b" opacity="0.48"><title>Game 58: THEORY · payoff 0.5556</title></circle><circle cx="694.96" cy="307.67" r="2.5" fill="#f59e0b" opacity="0.48"><title>Game 59: THEORY · payoff 0.3103</title></circle><circle cx="705.35" cy="365.09" r="2.5" fill="#f59e0b" opacity="0.48"><title>Game 60: THEORY · payoff 0.1517</title></circle><circle cx="715.75" cy="318.89" r="2.5" fill="#f59e0b" opacity="0.48"><title>Game 61: THEORY · payoff 0.2793</title></circle><circle cx="726.15" cy="281.90" r="2.5" fill="#f59e0b" opacity="0.48"><title>Game 62: THEORY · payoff 0.3815</title></circle><circle cx="736.54" cy="311.40" r="2.5" fill="#f59e0b" opacity="0.48"><title>Game 63: THEORY · payoff 0.3000</title></circle><circle cx="746.94" cy="260.72" r="2.5" fill="#f59e0b" opacity="0.48"><title>Game 64: THEORY · payoff 0.4400</title></circle><circle cx="757.33" cy="253.48" r="2.5" fill="#2563eb" opacity="0.48"><title>Game 65: EXPLOIT · payoff 0.4600</title></circle><circle cx="767.73" cy="304.16" r="2.5" fill="#f59e0b" opacity="0.48"><title>Game 66: THEORY · payoff 0.3200</title></circle><circle cx="778.12" cy="420.00" r="2.5" fill="#2563eb" opacity="0.48"><title>Game 67: EXPLOIT · payoff 0.0000</title></circle><circle cx="788.52" cy="260.72" r="2.5" fill="#f59e0b" opacity="0.48"><title>Game 68: THEORY · payoff 0.4400</title></circle><circle cx="798.92" cy="239.00" r="2.5" fill="#2563eb" opacity="0.48"><title>Game 69: EXPLOIT · payoff 0.5000</title></circle><circle cx="809.31" cy="206.28" r="2.5" fill="#f59e0b" opacity="0.48"><title>Game 70: THEORY · payoff 0.5904</title></circle><circle cx="819.71" cy="248.05" r="2.5" fill="#2563eb" opacity="0.48"><title>Game 71: EXPLOIT · payoff 0.4750</title></circle><circle cx="830.10" cy="88.47" r="2.5" fill="#f59e0b" opacity="0.48"><title>Game 72: THEORY · payoff 0.9158</title></circle><circle cx="840.50" cy="251.67" r="2.5" fill="#f59e0b" opacity="0.48"><title>Game 73: THEORY · payoff 0.4650</title></circle><circle cx="850.90" cy="241.95" r="2.5" fill="#f59e0b" opacity="0.48"><title>Game 74: THEORY · payoff 0.4919</title></circle><circle cx="861.29" cy="148.50" r="2.5" fill="#2563eb" opacity="0.48"><title>Game 75: EXPLOIT · payoff 0.7500</title></circle><circle cx="871.69" cy="420.00" r="2.5" fill="#f59e0b" opacity="0.48"><title>Game 76: THEORY · payoff 0.0000</title></circle><circle cx="882.08" cy="159.36" r="2.5" fill="#2563eb" opacity="0.48"><title>Game 77: EXPLOIT · payoff 0.7200</title></circle><circle cx="892.48" cy="275.20" r="2.5" fill="#f59e0b" opacity="0.48"><title>Game 78: THEORY · payoff 0.4000</title></circle><circle cx="902.88" cy="217.72" r="2.5" fill="#f59e0b" opacity="0.48"><title>Game 79: THEORY · payoff 0.5588</title></circle><circle cx="913.27" cy="282.44" r="2.5" fill="#f59e0b" opacity="0.48"><title>Game 80: THEORY · payoff 0.3800</title></circle><circle cx="923.67" cy="232.01" r="2.5" fill="#2563eb" opacity="0.48"><title>Game 81: EXPLOIT · payoff 0.5193</title></circle><circle cx="934.06" cy="308.63" r="2.5" fill="#f59e0b" opacity="0.48"><title>Game 82: THEORY · payoff 0.3077</title></circle><circle cx="944.46" cy="161.43" r="2.5" fill="#f59e0b" opacity="0.48"><title>Game 83: THEORY · payoff 0.7143</title></circle><circle cx="954.85" cy="206.28" r="2.5" fill="#f59e0b" opacity="0.48"><title>Game 84: THEORY · payoff 0.5904</title></circle><circle cx="965.25" cy="166.60" r="2.5" fill="#2563eb" opacity="0.48"><title>Game 85: EXPLOIT · payoff 0.7000</title></circle><circle cx="975.65" cy="232.71" r="2.5" fill="#f59e0b" opacity="0.48"><title>Game 86: THEORY · payoff 0.5174</title></circle><circle cx="986.04" cy="391.04" r="2.5" fill="#f59e0b" opacity="0.48"><title>Game 87: THEORY · payoff 0.0800</title></circle><circle cx="996.44" cy="271.76" r="2.5" fill="#f59e0b" opacity="0.48"><title>Game 88: THEORY · payoff 0.4095</title></circle><circle cx="1006.83" cy="239.00" r="2.5" fill="#2563eb" opacity="0.48"><title>Game 89: EXPLOIT · payoff 0.5000</title></circle><circle cx="1017.23" cy="353.27" r="2.5" fill="#f59e0b" opacity="0.48"><title>Game 90: THEORY · payoff 0.1843</title></circle><circle cx="1027.62" cy="245.30" r="2.5" fill="#2563eb" opacity="0.48"><title>Game 91: EXPLOIT · payoff 0.4826</title></circle><circle cx="1038.02" cy="420.00" r="2.5" fill="#f59e0b" opacity="0.48"><title>Game 92: THEORY · payoff 0.0000</title></circle><circle cx="1048.42" cy="344.58" r="2.5" fill="#f59e0b" opacity="0.48"><title>Game 93: THEORY · payoff 0.2083</title></circle><circle cx="1058.81" cy="420.00" r="2.5" fill="#f59e0b" opacity="0.48"><title>Game 94: THEORY · payoff 0.0000</title></circle><circle cx="1069.21" cy="250.58" r="2.5" fill="#f59e0b" opacity="0.48"><title>Game 95: THEORY · payoff 0.4680</title></circle><circle cx="1079.60" cy="229.96" r="2.5" fill="#f59e0b" opacity="0.48"><title>Game 96: THEORY · payoff 0.5250</title></circle><circle cx="1090.00" cy="391.04" r="2.5" fill="#f59e0b" opacity="0.48"><title>Game 97: THEORY · payoff 0.0800</title></circle><polyline points="185.56,264.36 289.52,260.96 393.48,304.43 497.44,306.44 601.40,276.44 705.35,313.69 809.31,285.65 913.27,233.34 1017.23,256.27" fill="none" stroke="#7c3aed" stroke-width="2.2" stroke-linejoin="round" stroke-linecap="round"/><polyline points="92.00,283.27 102.40,282.28 112.79,281.36 123.19,290.30 133.58,281.10 143.98,279.60 154.38,277.53 164.77,275.05 175.17,274.94 185.56,272.62 195.96,272.31 206.35,273.79 216.75,268.87 227.15,270.61 237.54,270.62 247.94,271.21 258.33,270.76 268.73,268.71 279.12,268.91 289.52,266.25 299.92,264.49 310.31,262.55 320.71,258.69 331.10,269.10 341.50,267.16 351.90,264.52 362.29,274.56 372.69,277.75 383.08,286.93 393.48,288.98 403.88,287.05 414.27,295.62 424.67,292.58 435.06,288.65 445.46,286.04 455.85,286.62 466.25,295.23 476.65,302.30 487.04,302.43 497.44,297.93 507.83,294.60 518.23,297.00 528.62,294.29 539.02,285.16 549.42,289.27 559.81,285.29 570.21,283.04 580.60,291.88 591.00,297.48 601.40,288.16 611.79,280.31 622.19,289.33 632.58,286.08 642.98,293.32 653.38,301.49 663.77,304.80 674.17,301.17 684.56,295.86 694.96,296.62 705.35,301.04 715.75,302.19 726.15,300.88 736.54,301.56 746.94,298.93 757.33,295.99 767.73,296.52 778.12,304.49 788.52,301.66 798.92,297.62 809.31,291.73 819.71,288.91 830.10,275.98 840.50,274.41 850.90,272.32 861.29,264.33 871.69,274.37 882.08,266.95 892.48,267.48 902.88,264.27 913.27,265.44 923.67,263.29 934.06,266.21 944.46,259.45 954.85,256.02 965.25,250.25 975.65,249.12 986.04,258.28 996.44,259.15 1006.83,257.85 1017.23,264.00 1027.62,262.80 1038.02,272.94 1048.42,277.56 1058.81,286.75 1069.21,284.42 1079.60,280.90 1090.00,288.01" fill="none" stroke="#111827" stroke-width="3.2" stroke-linejoin="round" stroke-linecap="round"/><polyline points="601.40,282.52 611.79,280.19 622.19,283.23 632.58,282.65 642.98,282.22 653.38,287.67 663.77,289.57 674.17,289.59 684.56,289.18 694.96,289.87 705.35,292.39 715.75,293.41 726.15,293.14 736.54,295.42 746.94,294.72 757.33,294.37 767.73,294.86 778.12,297.98 788.52,298.41 798.92,297.76 809.31,297.33 819.71,297.51 830.10,294.59 840.50,295.57 850.90,292.01 861.29,290.20 871.69,294.07 882.08,288.86 892.48,287.88 902.88,283.83 913.27,283.11 923.67,282.57 934.06,280.34 944.46,278.60 954.85,278.09 965.25,276.46 975.65,275.21 986.04,274.63 996.44,271.97 1006.83,270.67 1017.23,273.08 1027.62,273.06 1038.02,274.82 1048.42,276.62 1058.81,281.96 1069.21,279.99 1079.60,280.04 1090.00,282.85" fill="none" stroke="#059669" stroke-width="2.2" stroke-linejoin="round" stroke-linecap="round" stroke-dasharray="7,5"/><circle cx="112" cy="461" r="5" fill="#f59e0b"/><text x="131" y="465" font-family="system-ui,sans-serif" font-size="11" fill="#111827">THEORY game</text><circle cx="242" cy="461" r="5" fill="#2563eb"/><text x="261" y="465" font-family="system-ui,sans-serif" font-size="11" fill="#111827">EXPLOIT game</text><line x1="370" y1="461" x2="394" y2="461" stroke="#7c3aed" stroke-width="3"/><text x="401" y="465" font-family="system-ui,sans-serif" font-size="11" fill="#111827">10-game block mean</text><line x1="555" y1="461" x2="579" y2="461" stroke="#111827" stroke-width="3"/><text x="586" y="465" font-family="system-ui,sans-serif" font-size="11" fill="#111827">EWMA span 30</text><line x1="710" y1="461" x2="734" y2="461" stroke="#059669" stroke-width="3" stroke-dasharray="7,5"/><text x="741" y="465" font-family="system-ui,sans-serif" font-size="11" fill="#111827">rolling 50</text></svg>