<svg xmlns="http://www.w3.org/2000/svg" width="1120" height="520" viewBox="0 0 1120 520"><rect width="100%" height="100%" fill="#fcfcfd"/><text x="24" y="31" font-family="system-ui,sans-serif" font-size="20" font-weight="700" fill="#111827">Bargaining normalized own payoff</text><line x1="92" y1="420.00" x2="1090" y2="420.00" stroke="#dc2626" stroke-width="2.2" stroke-dasharray="7,5"/><text x="82" y="424.00" text-anchor="end" font-family="system-ui,sans-serif" font-size="12" fill="#dc2626">0.00</text><line x1="92" y1="329.50" x2="1090" y2="329.50" stroke="#dbe3ee" stroke-width="1"/><text x="82" y="333.50" text-anchor="end" font-family="system-ui,sans-serif" font-size="12" fill="#64748b">0.25</text><line x1="92" y1="239.00" x2="1090" y2="239.00" stroke="#dbe3ee" stroke-width="1"/><text x="82" y="243.00" text-anchor="end" font-family="system-ui,sans-serif" font-size="12" fill="#64748b">0.50</text><line x1="92" y1="148.50" x2="1090" y2="148.50" stroke="#dbe3ee" stroke-width="1"/><text x="82" y="152.50" text-anchor="end" font-family="system-ui,sans-serif" font-size="12" fill="#64748b">0.75</text><line x1="92" y1="58.00" x2="1090" y2="58.00" stroke="#dbe3ee" stroke-width="1"/><text x="82" y="62.00" text-anchor="end" font-family="system-ui,sans-serif" font-size="12" fill="#64748b">1.00</text><line x1="92.00" y1="420" x2="92.00" y2="425" stroke="#64748b"/><text x="92.00" y="441" text-anchor="middle" font-family="system-ui,sans-serif" font-size="11" fill="#64748b">1</text><line x1="275.15" y1="420" x2="275.15" y2="425" stroke="#64748b"/><text x="275.15" y="441" text-anchor="middle" font-family="system-ui,sans-serif" font-size="11" fill="#64748b">50</text><line x1="462.04" y1="420" x2="462.04" y2="425" stroke="#64748b"/><text x="462.04" y="441" text-anchor="middle" font-family="system-ui,sans-serif" font-size="11" fill="#64748b">100</text><line x1="648.94" y1="420" x2="648.94" y2="425" stroke="#64748b"/><text x="648.94" y="441" text-anchor="middle" font-family="system-ui,sans-serif" font-size="11" fill="#64748b">150</text><line x1="835.83" y1="420" x2="835.83" y2="425" stroke="#64748b"/><text x="835.83" y="441" text-anchor="middle" font-family="system-ui,sans-serif" font-size="11" fill="#64748b">200</text><line x1="1022.72" y1="420" x2="1022.72" y2="425" stroke="#64748b"/><text x="1022.72" y="441" text-anchor="middle" font-family="system-ui,sans-serif" font-size="11" fill="#64748b">250</text><line x1="1090.00" y1="420" x2="1090.00" y2="425" stroke="#64748b"/><text x="1090.00" y="441" text-anchor="middle" font-family="system-ui,sans-serif" font-size="11" fill="#64748b">268</text><line x1="92" y1="58" x2="92" y2="420" stroke="#64748b"/><line x1="92" y1="420" x2="1090" y2="420" stroke="#64748b"/><text x="591.00" y="502" text-anchor="middle" font-family="system-ui,sans-serif" font-size="13" fill="#64748b">Games played</text><text x="22" y="239.00" text-anchor="middle" transform="rotate(-90 22 239.00)" font-family="system-ui,sans-serif" font-size="13" fill="#64748b">Normalized own payoff</text><text x="1086" y="436.00" text-anchor="end" font-family="system-ui,sans-serif" font-size="11" font-weight="700" fill="#dc2626">zero payoff</text><circle cx="92.00" cy="283.27" r="2.5" fill="#f59e0b" opacity="0.48"><title>Game 1: THEORY · payoff 0.3777</title></circle><circle cx="95.74" cy="267.96" r="2.5" fill="#f59e0b" opacity="0.48"><title>Game 2: THEORY · payoff 0.4200</title></circle><circle cx="99.48" cy="267.87" r="2.5" fill="#f59e0b" opacity="0.48"><title>Game 3: THEORY · payoff 0.4202</title></circle><circle cx="103.21" cy="420.00" r="2.5" fill="#f59e0b" opacity="0.48"><title>Game 4: THEORY · payoff 0.0000</title></circle><circle cx="106.95" cy="147.74" r="2.5" fill="#f59e0b" opacity="0.48"><title>Game 5: THEORY · payoff 0.7521</title></circle><circle cx="110.69" cy="257.75" r="2.5" fill="#f59e0b" opacity="0.48"><title>Game 6: THEORY · payoff 0.4482</title></circle><circle cx="114.43" cy="247.60" r="2.5" fill="#f59e0b" opacity="0.48"><title>Game 7: THEORY · payoff 0.4763</title></circle><circle cx="118.16" cy="239.00" r="2.5" fill="#2563eb" opacity="0.48"><title>Game 8: EXPLOIT · payoff 0.5000</title></circle><circle cx="121.90" cy="273.39" r="2.5" fill="#2563eb" opacity="0.48"><title>Game 9: EXPLOIT · payoff 0.4050</title></circle><circle cx="125.64" cy="239.00" r="2.5" fill="#2563eb" opacity="0.48"><title>Game 10: EXPLOIT · payoff 0.5000</title></circle><circle cx="129.38" cy="267.89" r="2.5" fill="#f59e0b" opacity="0.48"><title>Game 11: THEORY · payoff 0.4202</title></circle><circle cx="133.12" cy="295.18" r="2.5" fill="#f59e0b" opacity="0.48"><title>Game 12: THEORY · payoff 0.3448</title></circle><circle cx="136.85" cy="197.45" r="2.5" fill="#f59e0b" opacity="0.48"><title>Game 13: THEORY · payoff 0.6148</title></circle><circle cx="140.59" cy="295.94" r="2.5" fill="#f59e0b" opacity="0.48"><title>Game 14: THEORY · payoff 0.3427</title></circle><circle cx="144.33" cy="270.68" r="2.5" fill="#f59e0b" opacity="0.48"><title>Game 15: THEORY · payoff 0.4125</title></circle><circle cx="148.07" cy="279.76" r="2.5" fill="#f59e0b" opacity="0.48"><title>Game 16: THEORY · payoff 0.3874</title></circle><circle cx="151.81" cy="264.34" r="2.5" fill="#2563eb" opacity="0.48"><title>Game 17: EXPLOIT · payoff 0.4300</title></circle><circle cx="155.54" cy="239.00" r="2.5" fill="#f59e0b" opacity="0.48"><title>Game 18: THEORY · payoff 0.5000</title></circle><circle cx="159.28" cy="271.76" r="2.5" fill="#f59e0b" opacity="0.48"><title>Game 19: THEORY · payoff 0.4095</title></circle><circle cx="163.02" cy="227.63" r="2.5" fill="#f59e0b" opacity="0.48"><title>Game 20: THEORY · payoff 0.5314</title></circle><circle cx="166.76" cy="239.00" r="2.5" fill="#2563eb" opacity="0.48"><title>Game 21: EXPLOIT · payoff 0.5000</title></circle><circle cx="170.49" cy="234.36" r="2.5" fill="#f59e0b" opacity="0.48"><title>Game 22: THEORY · payoff 0.5128</title></circle><circle cx="174.23" cy="202.80" r="2.5" fill="#2563eb" opacity="0.48"><title>Game 23: EXPLOIT · payoff 0.6000</title></circle><circle cx="177.97" cy="420.00" r="2.5" fill="#f59e0b" opacity="0.48"><title>Game 24: THEORY · payoff 0.0000</title></circle><circle cx="181.71" cy="239.00" r="2.5" fill="#f59e0b" opacity="0.48"><title>Game 25: THEORY · payoff 0.5000</title></circle><circle cx="185.45" cy="226.37" r="2.5" fill="#f59e0b" opacity="0.48"><title>Game 26: THEORY · payoff 0.5349</title></circle><circle cx="189.18" cy="420.00" r="2.5" fill="#2563eb" opacity="0.48"><title>Game 27: EXPLOIT · payoff 0.0000</title></circle><circle cx="192.92" cy="324.10" r="2.5" fill="#f59e0b" opacity="0.48"><title>Game 28: THEORY · payoff 0.2649</title></circle><circle cx="196.66" cy="420.00" r="2.5" fill="#2563eb" opacity="0.48"><title>Game 29: EXPLOIT · payoff 0.0000</title></circle><circle cx="200.40" cy="318.64" r="2.5" fill="#f59e0b" opacity="0.48"><title>Game 30: THEORY · payoff 0.2800</title></circle><circle cx="204.13" cy="259.09" r="2.5" fill="#f59e0b" opacity="0.48"><title>Game 31: THEORY · payoff 0.4445</title></circle><circle cx="207.87" cy="420.00" r="2.5" fill="#f59e0b" opacity="0.48"><title>Game 32: THEORY · payoff 0.0000</title></circle><circle cx="211.61" cy="248.41" r="2.5" fill="#f59e0b" opacity="0.48"><title>Game 33: THEORY · payoff 0.4740</title></circle><circle cx="215.35" cy="231.76" r="2.5" fill="#f59e0b" opacity="0.48"><title>Game 34: THEORY · payoff 0.5200</title></circle><circle cx="219.09" cy="248.05" r="2.5" fill="#2563eb" opacity="0.48"><title>Game 35: EXPLOIT · payoff 0.4750</title></circle><circle cx="222.82" cy="295.17" r="2.5" fill="#f59e0b" opacity="0.48"><title>Game 36: THEORY · payoff 0.3448</title></circle><circle cx="226.56" cy="420.00" r="2.5" fill="#2563eb" opacity="0.48"><title>Game 37: EXPLOIT · payoff 0.0000</title></circle><circle cx="230.30" cy="404.82" r="2.5" fill="#f59e0b" opacity="0.48"><title>Game 38: THEORY · payoff 0.0419</title></circle><circle cx="234.04" cy="304.34" r="2.5" fill="#f59e0b" opacity="0.48"><title>Game 39: THEORY · payoff 0.3195</title></circle><circle cx="237.78" cy="232.70" r="2.5" fill="#f59e0b" opacity="0.48"><title>Game 40: THEORY · payoff 0.5174</title></circle><circle cx="241.51" cy="246.24" r="2.5" fill="#f59e0b" opacity="0.48"><title>Game 41: THEORY · payoff 0.4800</title></circle><circle cx="245.25" cy="331.82" r="2.5" fill="#f59e0b" opacity="0.48"><title>Game 42: THEORY · payoff 0.2436</title></circle><circle cx="248.99" cy="254.93" r="2.5" fill="#2563eb" opacity="0.48"><title>Game 43: EXPLOIT · payoff 0.4560</title></circle><circle cx="252.73" cy="152.90" r="2.5" fill="#f59e0b" opacity="0.48"><title>Game 44: THEORY · payoff 0.7379</title></circle><circle cx="256.46" cy="348.81" r="2.5" fill="#f59e0b" opacity="0.48"><title>Game 45: THEORY · payoff 0.1967</title></circle><circle cx="260.20" cy="227.62" r="2.5" fill="#f59e0b" opacity="0.48"><title>Game 46: THEORY · payoff 0.5314</title></circle><circle cx="263.94" cy="250.38" r="2.5" fill="#f59e0b" opacity="0.48"><title>Game 47: THEORY · payoff 0.4686</title></circle><circle cx="267.68" cy="420.00" r="2.5" fill="#f59e0b" opacity="0.48"><title>Game 48: THEORY · payoff 0.0000</title></circle><circle cx="271.42" cy="378.80" r="2.5" fill="#2563eb" opacity="0.48"><title>Game 49: EXPLOIT · payoff 0.1138</title></circle><circle cx="275.15" cy="152.90" r="2.5" fill="#f59e0b" opacity="0.48"><title>Game 50: THEORY · payoff 0.7379</title></circle><circle cx="278.89" cy="166.60" r="2.5" fill="#2563eb" opacity="0.48"><title>Game 51: EXPLOIT · payoff 0.7000</title></circle><circle cx="282.63" cy="420.00" r="2.5" fill="#f59e0b" opacity="0.48"><title>Game 52: THEORY · payoff 0.0000</title></circle><circle cx="286.37" cy="239.00" r="2.5" fill="#2563eb" opacity="0.48"><title>Game 53: EXPLOIT · payoff 0.5000</title></circle><circle cx="290.10" cy="398.33" r="2.5" fill="#f59e0b" opacity="0.48"><title>Game 54: THEORY · payoff 0.0599</title></circle><circle cx="293.84" cy="420.00" r="2.5" fill="#f59e0b" opacity="0.48"><title>Game 55: THEORY · payoff 0.0000</title></circle><circle cx="297.58" cy="352.78" r="2.5" fill="#f59e0b" opacity="0.48"><title>Game 56: THEORY · payoff 0.1857</title></circle><circle cx="301.32" cy="248.53" r="2.5" fill="#2563eb" opacity="0.48"><title>Game 57: EXPLOIT · payoff 0.4737</title></circle><circle cx="305.06" cy="218.87" r="2.5" fill="#f59e0b" opacity="0.48"><title>Game 58: THEORY · payoff 0.5556</title></circle><circle cx="308.79" cy="307.67" r="2.5" fill="#f59e0b" opacity="0.48"><title>Game 59: THEORY · payoff 0.3103</title></circle><circle cx="312.53" cy="365.09" r="2.5" fill="#f59e0b" opacity="0.48"><title>Game 60: THEORY · payoff 0.1517</title></circle><circle cx="316.27" cy="318.89" r="2.5" fill="#f59e0b" opacity="0.48"><title>Game 61: THEORY · payoff 0.2793</title></circle><circle cx="320.01" cy="281.90" r="2.5" fill="#f59e0b" opacity="0.48"><title>Game 62: THEORY · payoff 0.3815</title></circle><circle cx="323.75" cy="311.40" r="2.5" fill="#f59e0b" opacity="0.48"><title>Game 63: THEORY · payoff 0.3000</title></circle><circle cx="327.48" cy="260.72" r="2.5" fill="#f59e0b" opacity="0.48"><title>Game 64: THEORY · payoff 0.4400</title></circle><circle cx="331.22" cy="253.48" r="2.5" fill="#2563eb" opacity="0.48"><title>Game 65: EXPLOIT · payoff 0.4600</title></circle><circle cx="334.96" cy="304.16" r="2.5" fill="#f59e0b" opacity="0.48"><title>Game 66: THEORY · payoff 0.3200</title></circle><circle cx="338.70" cy="420.00" r="2.5" fill="#2563eb" opacity="0.48"><title>Game 67: EXPLOIT · payoff 0.0000</title></circle><circle cx="342.43" cy="260.72" r="2.5" fill="#f59e0b" opacity="0.48"><title>Game 68: THEORY · payoff 0.4400</title></circle><circle cx="346.17" cy="239.00" r="2.5" fill="#2563eb" opacity="0.48"><title>Game 69: EXPLOIT · payoff 0.5000</title></circle><circle cx="349.91" cy="206.28" r="2.5" fill="#f59e0b" opacity="0.48"><title>Game 70: THEORY · payoff 0.5904</title></circle><circle cx="353.65" cy="248.05" r="2.5" fill="#2563eb" opacity="0.48"><title>Game 71: EXPLOIT · payoff 0.4750</title></circle><circle cx="357.39" cy="88.47" r="2.5" fill="#f59e0b" opacity="0.48"><title>Game 72: THEORY · payoff 0.9158</title></circle><circle cx="361.12" cy="251.67" r="2.5" fill="#f59e0b" opacity="0.48"><title>Game 73: THEORY · payoff 0.4650</title></circle><circle cx="364.86" cy="241.95" r="2.5" fill="#f59e0b" opacity="0.48"><title>Game 74: THEORY · payoff 0.4919</title></circle><circle cx="368.60" cy="148.50" r="2.5" fill="#2563eb" opacity="0.48"><title>Game 75: EXPLOIT · payoff 0.7500</title></circle><circle cx="372.34" cy="420.00" r="2.5" fill="#f59e0b" opacity="0.48"><title>Game 76: THEORY · payoff 0.0000</title></circle><circle cx="376.07" cy="159.36" r="2.5" fill="#2563eb" opacity="0.48"><title>Game 77: EXPLOIT · payoff 0.7200</title></circle><circle cx="379.81" cy="275.20" r="2.5" fill="#f59e0b" opacity="0.48"><title>Game 78: THEORY · payoff 0.4000</title></circle><circle cx="383.55" cy="217.72" r="2.5" fill="#f59e0b" opacity="0.48"><title>Game 79: THEORY · payoff 0.5588</title></circle><circle cx="387.29" cy="282.44" r="2.5" fill="#f59e0b" opacity="0.48"><title>Game 80: THEORY · payoff 0.3800</title></circle><circle cx="391.03" cy="232.01" r="2.5" fill="#2563eb" opacity="0.48"><title>Game 81: EXPLOIT · payoff 0.5193</title></circle><circle cx="394.76" cy="308.63" r="2.5" fill="#f59e0b" opacity="0.48"><title>Game 82: THEORY · payoff 0.3077</title></circle><circle cx="398.50" cy="161.43" r="2.5" fill="#f59e0b" opacity="0.48"><title>Game 83: THEORY · payoff 0.7143</title></circle><circle cx="402.24" cy="206.28" r="2.5" fill="#f59e0b" opacity="0.48"><title>Game 84: THEORY · payoff 0.5904</title></circle><circle cx="405.98" cy="166.60" r="2.5" fill="#2563eb" opacity="0.48"><title>Game 85: EXPLOIT · payoff 0.7000</title></circle><circle cx="409.72" cy="232.71" r="2.5" fill="#f59e0b" opacity="0.48"><title>Game 86: THEORY · payoff 0.5174</title></circle><circle cx="413.45" cy="391.04" r="2.5" fill="#f59e0b" opacity="0.48"><title>Game 87: THEORY · payoff 0.0800</title></circle><circle cx="417.19" cy="271.76" r="2.5" fill="#f59e0b" opacity="0.48"><title>Game 88: THEORY · payoff 0.4095</title></circle><circle cx="420.93" cy="239.00" r="2.5" fill="#2563eb" opacity="0.48"><title>Game 89: EXPLOIT · payoff 0.5000</title></circle><circle cx="424.67" cy="353.27" r="2.5" fill="#f59e0b" opacity="0.48"><title>Game 90: THEORY · payoff 0.1843</title></circle><circle cx="428.40" cy="245.30" r="2.5" fill="#2563eb" opacity="0.48"><title>Game 91: EXPLOIT · payoff 0.4826</title></circle><circle cx="432.14" cy="420.00" r="2.5" fill="#f59e0b" opacity="0.48"><title>Game 92: THEORY · payoff 0.0000</title></circle><circle cx="435.88" cy="344.58" r="2.5" fill="#f59e0b" opacity="0.48"><title>Game 93: THEORY · payoff 0.2083</title></circle><circle cx="439.62" cy="420.00" r="2.5" fill="#f59e0b" opacity="0.48"><title>Game 94: THEORY · payoff 0.0000</title></circle><circle cx="443.36" cy="250.58" r="2.5" fill="#f59e0b" opacity="0.48"><title>Game 95: THEORY · payoff 0.4680</title></circle><circle cx="447.09" cy="229.96" r="2.5" fill="#f59e0b" opacity="0.48"><title>Game 96: THEORY · payoff 0.5250</title></circle><circle cx="450.83" cy="391.04" r="2.5" fill="#f59e0b" opacity="0.48"><title>Game 97: THEORY · payoff 0.0800</title></circle><circle cx="454.57" cy="239.00" r="2.5" fill="#f59e0b" opacity="0.48"><title>Game 98: THEORY · payoff 0.5000</title></circle><circle cx="458.31" cy="267.87" r="2.5" fill="#f59e0b" opacity="0.48"><title>Game 99: THEORY · payoff 0.4202</title></circle><circle cx="462.04" cy="233.68" r="2.5" fill="#f59e0b" opacity="0.48"><title>Game 100: THEORY · payoff 0.5147</title></circle><circle cx="465.78" cy="202.80" r="2.5" fill="#2563eb" opacity="0.48"><title>Game 101: EXPLOIT · payoff 0.6000</title></circle><circle cx="469.52" cy="268.79" r="2.5" fill="#f59e0b" opacity="0.48"><title>Game 102: THEORY · payoff 0.4177</title></circle><circle cx="473.26" cy="405.56" r="2.5" fill="#2563eb" opacity="0.48"><title>Game 103: EXPLOIT · payoff 0.0399</title></circle><circle cx="477.00" cy="276.47" r="2.5" fill="#f59e0b" opacity="0.48"><title>Game 104: THEORY · payoff 0.3965</title></circle><circle cx="480.73" cy="195.26" r="2.5" fill="#2563eb" opacity="0.48"><title>Game 105: EXPLOIT · payoff 0.6208</title></circle><circle cx="484.47" cy="234.37" r="2.5" fill="#f59e0b" opacity="0.48"><title>Game 106: THEORY · payoff 0.5128</title></circle><circle cx="488.21" cy="200.50" r="2.5" fill="#2563eb" opacity="0.48"><title>Game 107: EXPLOIT · payoff 0.6064</title></circle><circle cx="491.95" cy="58.00" r="2.5" fill="#f59e0b" opacity="0.48"><title>Game 108: THEORY · payoff 1.0000</title></circle><circle cx="495.69" cy="260.72" r="2.5" fill="#f59e0b" opacity="0.48"><title>Game 109: THEORY · payoff 0.4400</title></circle><circle cx="499.42" cy="338.12" r="2.5" fill="#f59e0b" opacity="0.48"><title>Game 110: THEORY · payoff 0.2262</title></circle><circle cx="503.16" cy="239.00" r="2.5" fill="#2563eb" opacity="0.48"><title>Game 111: EXPLOIT · payoff 0.5000</title></circle><circle cx="506.90" cy="352.78" r="2.5" fill="#f59e0b" opacity="0.48"><title>Game 112: THEORY · payoff 0.1857</title></circle><circle cx="510.64" cy="202.80" r="2.5" fill="#2563eb" opacity="0.48"><title>Game 113: EXPLOIT · payoff 0.6000</title></circle><circle cx="514.37" cy="420.00" r="2.5" fill="#f59e0b" opacity="0.48"><title>Game 114: THEORY · payoff 0.0000</title></circle><circle cx="518.11" cy="315.02" r="2.5" fill="#f59e0b" opacity="0.48"><title>Game 115: THEORY · payoff 0.2900</title></circle><circle cx="521.85" cy="185.20" r="2.5" fill="#f59e0b" opacity="0.48"><title>Game 116: THEORY · payoff 0.6486</title></circle><circle cx="525.59" cy="239.00" r="2.5" fill="#2563eb" opacity="0.48"><title>Game 117: EXPLOIT · payoff 0.5000</title></circle><circle cx="529.33" cy="271.02" r="2.5" fill="#f59e0b" opacity="0.48"><title>Game 118: THEORY · payoff 0.4115</title></circle><circle cx="533.06" cy="246.24" r="2.5" fill="#f59e0b" opacity="0.48"><title>Game 119: THEORY · payoff 0.4800</title></circle><circle cx="536.80" cy="344.58" r="2.5" fill="#f59e0b" opacity="0.48"><title>Game 120: THEORY · payoff 0.2083</title></circle><circle cx="540.54" cy="391.04" r="2.5" fill="#f59e0b" opacity="0.48"><title>Game 121: THEORY · payoff 0.0800</title></circle><circle cx="544.28" cy="165.88" r="2.5" fill="#f59e0b" opacity="0.48"><title>Game 122: THEORY · payoff 0.7020</title></circle><circle cx="548.01" cy="420.00" r="2.5" fill="#f59e0b" opacity="0.48"><title>Game 123: THEORY · payoff 0.0000</title></circle><circle cx="551.75" cy="420.00" r="2.5" fill="#f59e0b" opacity="0.48"><title>Game 124: THEORY · payoff 0.0000</title></circle><circle cx="555.49" cy="246.24" r="2.5" fill="#2563eb" opacity="0.48"><title>Game 125: EXPLOIT · payoff 0.4800</title></circle><circle cx="559.23" cy="198.24" r="2.5" fill="#f59e0b" opacity="0.48"><title>Game 126: THEORY · payoff 0.6126</title></circle><circle cx="562.97" cy="333.87" r="2.5" fill="#f59e0b" opacity="0.48"><title>Game 127: THEORY · payoff 0.2379</title></circle><circle cx="566.70" cy="318.89" r="2.5" fill="#f59e0b" opacity="0.48"><title>Game 128: THEORY · payoff 0.2793</title></circle><circle cx="570.44" cy="241.90" r="2.5" fill="#2563eb" opacity="0.48"><title>Game 129: EXPLOIT · payoff 0.4920</title></circle><circle cx="574.18" cy="420.00" r="2.5" fill="#f59e0b" opacity="0.48"><title>Game 130: THEORY · payoff 0.0000</title></circle><circle cx="577.92" cy="159.36" r="2.5" fill="#f59e0b" opacity="0.48"><title>Game 131: THEORY · payoff 0.7200</title></circle><circle cx="581.66" cy="301.54" r="2.5" fill="#f59e0b" opacity="0.48"><title>Game 132: THEORY · payoff 0.3272</title></circle><circle cx="585.39" cy="420.00" r="2.5" fill="#f59e0b" opacity="0.48"><title>Game 133: THEORY · payoff 0.0000</title></circle><circle cx="589.13" cy="334.67" r="2.5" fill="#f59e0b" opacity="0.48"><title>Game 134: THEORY · payoff 0.2357</title></circle><circle cx="592.87" cy="250.58" r="2.5" fill="#2563eb" opacity="0.48"><title>Game 135: EXPLOIT · payoff 0.4680</title></circle><circle cx="596.61" cy="239.00" r="2.5" fill="#f59e0b" opacity="0.48"><title>Game 136: THEORY · payoff 0.5000</title></circle><circle cx="600.34" cy="420.00" r="2.5" fill="#f59e0b" opacity="0.48"><title>Game 137: THEORY · payoff 0.0000</title></circle><circle cx="604.08" cy="401.90" r="2.5" fill="#f59e0b" opacity="0.48"><title>Game 138: THEORY · payoff 0.0500</title></circle><circle cx="607.82" cy="166.60" r="2.5" fill="#2563eb" opacity="0.48"><title>Game 139: EXPLOIT · payoff 0.7000</title></circle><circle cx="611.56" cy="251.09" r="2.5" fill="#f59e0b" opacity="0.48"><title>Game 140: THEORY · payoff 0.4666</title></circle><circle cx="615.30" cy="130.40" r="2.5" fill="#2563eb" opacity="0.48"><title>Game 141: EXPLOIT · payoff 0.8000</title></circle><circle cx="619.03" cy="404.82" r="2.5" fill="#f59e0b" opacity="0.48"><title>Game 142: THEORY · payoff 0.0419</title></circle><circle cx="622.77" cy="275.20" r="2.5" fill="#2563eb" opacity="0.48"><title>Game 143: EXPLOIT · payoff 0.4000</title></circle><circle cx="626.51" cy="231.83" r="2.5" fill="#f59e0b" opacity="0.48"><title>Game 144: THEORY · payoff 0.5198</title></circle><circle cx="630.25" cy="364.00" r="2.5" fill="#f59e0b" opacity="0.48"><title>Game 145: THEORY · payoff 0.1547</title></circle><circle cx="633.99" cy="351.18" r="2.5" fill="#f59e0b" opacity="0.48"><title>Game 146: THEORY · payoff 0.1901</title></circle><circle cx="637.72" cy="359.12" r="2.5" fill="#f59e0b" opacity="0.48"><title>Game 147: THEORY · payoff 0.1682</title></circle><circle cx="641.46" cy="420.00" r="2.5" fill="#f59e0b" opacity="0.48"><title>Game 148: THEORY · payoff 0.0000</title></circle><circle cx="645.20" cy="243.63" r="2.5" fill="#f59e0b" opacity="0.48"><title>Game 149: THEORY · payoff 0.4872</title></circle><circle cx="648.94" cy="376.89" r="2.5" fill="#f59e0b" opacity="0.48"><title>Game 150: THEORY · payoff 0.1191</title></circle><circle cx="652.67" cy="295.17" r="2.5" fill="#f59e0b" opacity="0.48"><title>Game 151: THEORY · payoff 0.3448</title></circle><circle cx="656.41" cy="416.13" r="2.5" fill="#f59e0b" opacity="0.48"><title>Game 152: THEORY · payoff 0.0107</title></circle><circle cx="660.15" cy="420.00" r="2.5" fill="#f59e0b" opacity="0.48"><title>Game 153: THEORY · payoff 0.0000</title></circle><circle cx="663.89" cy="232.71" r="2.5" fill="#f59e0b" opacity="0.48"><title>Game 154: THEORY · payoff 0.5174</title></circle><circle cx="667.63" cy="58.00" r="2.5" fill="#f59e0b" opacity="0.48"><title>Game 155: THEORY · payoff 1.0000</title></circle><circle cx="671.36" cy="252.46" r="2.5" fill="#f59e0b" opacity="0.48"><title>Game 156: THEORY · payoff 0.4628</title></circle><circle cx="675.10" cy="420.00" r="2.5" fill="#f59e0b" opacity="0.48"><title>Game 157: THEORY · payoff 0.0000</title></circle><circle cx="678.84" cy="231.50" r="2.5" fill="#f59e0b" opacity="0.48"><title>Game 158: THEORY · payoff 0.5207</title></circle><circle cx="682.58" cy="257.10" r="2.5" fill="#2563eb" opacity="0.48"><title>Game 159: EXPLOIT · payoff 0.4500</title></circle><circle cx="686.31" cy="214.09" r="2.5" fill="#f59e0b" opacity="0.48"><title>Game 160: THEORY · payoff 0.5688</title></circle><circle cx="690.05" cy="239.00" r="2.5" fill="#2563eb" opacity="0.48"><title>Game 161: EXPLOIT · payoff 0.5000</title></circle><circle cx="693.79" cy="150.26" r="2.5" fill="#f59e0b" opacity="0.48"><title>Game 162: THEORY · payoff 0.7451</title></circle><circle cx="697.53" cy="230.86" r="2.5" fill="#f59e0b" opacity="0.48"><title>Game 163: THEORY · payoff 0.5225</title></circle><circle cx="701.27" cy="420.00" r="2.5" fill="#f59e0b" opacity="0.48"><title>Game 164: THEORY · payoff 0.0000</title></circle><circle cx="705.00" cy="206.28" r="2.5" fill="#f59e0b" opacity="0.48"><title>Game 165: THEORY · payoff 0.5904</title></circle><circle cx="708.74" cy="232.71" r="2.5" fill="#f59e0b" opacity="0.48"><title>Game 166: THEORY · payoff 0.5174</title></circle><circle cx="712.48" cy="243.64" r="2.5" fill="#f59e0b" opacity="0.48"><title>Game 167: THEORY · payoff 0.4872</title></circle><circle cx="716.22" cy="250.38" r="2.5" fill="#f59e0b" opacity="0.48"><title>Game 168: THEORY · payoff 0.4686</title></circle><circle cx="719.96" cy="239.00" r="2.5" fill="#2563eb" opacity="0.48"><title>Game 169: EXPLOIT · payoff 0.5000</title></circle><circle cx="723.69" cy="278.82" r="2.5" fill="#f59e0b" opacity="0.48"><title>Game 170: THEORY · payoff 0.3900</title></circle><circle cx="727.43" cy="420.00" r="2.5" fill="#2563eb" opacity="0.48"><title>Game 171: EXPLOIT · payoff 0.0000</title></circle><circle cx="731.17" cy="157.55" r="2.5" fill="#f59e0b" opacity="0.48"><title>Game 172: THEORY · payoff 0.7250</title></circle><circle cx="734.91" cy="210.13" r="2.5" fill="#f59e0b" opacity="0.48"><title>Game 173: THEORY · payoff 0.5798</title></circle><circle cx="738.64" cy="267.87" r="2.5" fill="#f59e0b" opacity="0.48"><title>Game 174: THEORY · payoff 0.4202</title></circle><circle cx="742.38" cy="58.00" r="2.5" fill="#f59e0b" opacity="0.48"><title>Game 175: THEORY · payoff 1.0000</title></circle><circle cx="746.12" cy="420.00" r="2.5" fill="#f59e0b" opacity="0.48"><title>Game 176: THEORY · payoff 0.0000</title></circle><circle cx="749.86" cy="415.03" r="2.5" fill="#2563eb" opacity="0.48"><title>Game 177: EXPLOIT · payoff 0.0137</title></circle><circle cx="753.60" cy="210.13" r="2.5" fill="#f59e0b" opacity="0.48"><title>Game 178: THEORY · payoff 0.5798</title></circle><circle cx="757.33" cy="166.60" r="2.5" fill="#2563eb" opacity="0.48"><title>Game 179: EXPLOIT · payoff 0.7000</title></circle><circle cx="761.07" cy="257.10" r="2.5" fill="#f59e0b" opacity="0.48"><title>Game 180: THEORY · payoff 0.4500</title></circle><circle cx="764.81" cy="420.00" r="2.5" fill="#2563eb" opacity="0.48"><title>Game 181: EXPLOIT · payoff 0.0000</title></circle><circle cx="768.55" cy="271.76" r="2.5" fill="#f59e0b" opacity="0.48"><title>Game 182: THEORY · payoff 0.4095</title></circle><circle cx="772.28" cy="220.90" r="2.5" fill="#2563eb" opacity="0.48"><title>Game 183: EXPLOIT · payoff 0.5500</title></circle><circle cx="776.02" cy="343.91" r="2.5" fill="#f59e0b" opacity="0.48"><title>Game 184: THEORY · payoff 0.2102</title></circle><circle cx="779.76" cy="248.05" r="2.5" fill="#2563eb" opacity="0.48"><title>Game 185: EXPLOIT · payoff 0.4750</title></circle><circle cx="783.50" cy="344.60" r="2.5" fill="#f59e0b" opacity="0.48"><title>Game 186: THEORY · payoff 0.2083</title></circle><circle cx="787.24" cy="273.39" r="2.5" fill="#2563eb" opacity="0.48"><title>Game 187: EXPLOIT · payoff 0.4050</title></circle><circle cx="790.97" cy="308.63" r="2.5" fill="#f59e0b" opacity="0.48"><title>Game 188: THEORY · payoff 0.3077</title></circle><circle cx="794.71" cy="58.00" r="2.5" fill="#f59e0b" opacity="0.48"><title>Game 189: THEORY · payoff 1.0000</title></circle><circle cx="798.45" cy="306.40" r="2.5" fill="#f59e0b" opacity="0.48"><title>Game 190: THEORY · payoff 0.3138</title></circle><circle cx="802.19" cy="166.60" r="2.5" fill="#2563eb" opacity="0.48"><title>Game 191: EXPLOIT · payoff 0.7000</title></circle><circle cx="805.93" cy="197.45" r="2.5" fill="#f59e0b" opacity="0.48"><title>Game 192: THEORY · payoff 0.6148</title></circle><circle cx="809.66" cy="344.60" r="2.5" fill="#f59e0b" opacity="0.48"><title>Game 193: THEORY · payoff 0.2083</title></circle><circle cx="813.40" cy="293.30" r="2.5" fill="#f59e0b" opacity="0.48"><title>Game 194: THEORY · payoff 0.3500</title></circle><circle cx="817.14" cy="239.00" r="2.5" fill="#2563eb" opacity="0.48"><title>Game 195: EXPLOIT · payoff 0.5000</title></circle><circle cx="820.88" cy="347.60" r="2.5" fill="#f59e0b" opacity="0.48"><title>Game 196: THEORY · payoff 0.2000</title></circle><circle cx="824.61" cy="391.04" r="2.5" fill="#f59e0b" opacity="0.48"><title>Game 197: THEORY · payoff 0.0800</title></circle><circle cx="828.35" cy="239.00" r="2.5" fill="#f59e0b" opacity="0.48"><title>Game 198: THEORY · payoff 0.5000</title></circle><circle cx="832.09" cy="239.00" r="2.5" fill="#2563eb" opacity="0.48"><title>Game 199: EXPLOIT · payoff 0.5000</title></circle><circle cx="835.83" cy="318.64" r="2.5" fill="#f59e0b" opacity="0.48"><title>Game 200: THEORY · payoff 0.2800</title></circle><circle cx="839.57" cy="420.00" r="2.5" fill="#f59e0b" opacity="0.48"><title>Game 201: THEORY · payoff 0.0000</title></circle><circle cx="843.30" cy="188.79" r="2.5" fill="#f59e0b" opacity="0.48"><title>Game 202: THEORY · payoff 0.6387</title></circle><circle cx="847.04" cy="293.30" r="2.5" fill="#f59e0b" opacity="0.48"><title>Game 203: THEORY · payoff 0.3500</title></circle><circle cx="850.78" cy="251.08" r="2.5" fill="#f59e0b" opacity="0.48"><title>Game 204: THEORY · payoff 0.4666</title></circle><circle cx="854.52" cy="260.72" r="2.5" fill="#2563eb" opacity="0.48"><title>Game 205: EXPLOIT · payoff 0.4400</title></circle><circle cx="858.25" cy="239.00" r="2.5" fill="#f59e0b" opacity="0.48"><title>Game 206: THEORY · payoff 0.5000</title></circle><circle cx="861.99" cy="218.89" r="2.5" fill="#f59e0b" opacity="0.48"><title>Game 207: THEORY · payoff 0.5556</title></circle><circle cx="865.73" cy="317.12" r="2.5" fill="#f59e0b" opacity="0.48"><title>Game 208: THEORY · payoff 0.2842</title></circle><circle cx="869.47" cy="413.69" r="2.5" fill="#f59e0b" opacity="0.48"><title>Game 209: THEORY · payoff 0.0174</title></circle><circle cx="873.21" cy="220.90" r="2.5" fill="#f59e0b" opacity="0.48"><title>Game 210: THEORY · payoff 0.5500</title></circle><circle cx="876.94" cy="245.91" r="2.5" fill="#2563eb" opacity="0.48"><title>Game 211: EXPLOIT · payoff 0.4809</title></circle><circle cx="880.68" cy="226.79" r="2.5" fill="#f59e0b" opacity="0.48"><title>Game 212: THEORY · payoff 0.5337</title></circle><circle cx="884.42" cy="264.34" r="2.5" fill="#2563eb" opacity="0.48"><title>Game 213: EXPLOIT · payoff 0.4300</title></circle><circle cx="888.16" cy="58.00" r="2.5" fill="#f59e0b" opacity="0.48"><title>Game 214: THEORY · payoff 1.0000</title></circle><circle cx="891.90" cy="239.00" r="2.5" fill="#2563eb" opacity="0.48"><title>Game 215: EXPLOIT · payoff 0.5000</title></circle><circle cx="895.63" cy="295.18" r="2.5" fill="#f59e0b" opacity="0.48"><title>Game 216: THEORY · payoff 0.3448</title></circle><circle cx="899.37" cy="307.75" r="2.5" fill="#f59e0b" opacity="0.48"><title>Game 217: THEORY · payoff 0.3101</title></circle><circle cx="903.11" cy="420.00" r="2.5" fill="#f59e0b" opacity="0.48"><title>Game 218: THEORY · payoff 0.0000</title></circle><circle cx="906.85" cy="420.00" r="2.5" fill="#2563eb" opacity="0.48"><title>Game 219: EXPLOIT · payoff 0.0000</title></circle><circle cx="910.58" cy="282.44" r="2.5" fill="#f59e0b" opacity="0.48"><title>Game 220: THEORY · payoff 0.3800</title></circle><circle cx="914.32" cy="58.00" r="2.5" fill="#f59e0b" opacity="0.48"><title>Game 221: THEORY · payoff 1.0000</title></circle><circle cx="918.06" cy="240.81" r="2.5" fill="#f59e0b" opacity="0.48"><title>Game 222: THEORY · payoff 0.4950</title></circle><circle cx="921.80" cy="239.00" r="2.5" fill="#2563eb" opacity="0.48"><title>Game 223: EXPLOIT · payoff 0.5000</title></circle><circle cx="925.54" cy="420.00" r="2.5" fill="#f59e0b" opacity="0.48"><title>Game 224: THEORY · payoff 0.0000</title></circle><circle cx="929.27" cy="248.05" r="2.5" fill="#2563eb" opacity="0.48"><title>Game 225: EXPLOIT · payoff 0.4750</title></circle><circle cx="933.01" cy="232.70" r="2.5" fill="#f59e0b" opacity="0.48"><title>Game 226: THEORY · payoff 0.5174</title></circle><circle cx="936.75" cy="308.73" r="2.5" fill="#f59e0b" opacity="0.48"><title>Game 227: THEORY · payoff 0.3074</title></circle><circle cx="940.49" cy="420.00" r="2.5" fill="#f59e0b" opacity="0.48"><title>Game 228: THEORY · payoff 0.0000</title></circle><circle cx="944.22" cy="420.00" r="2.5" fill="#f59e0b" opacity="0.48"><title>Game 229: THEORY · payoff 0.0000</title></circle><circle cx="947.96" cy="420.00" r="2.5" fill="#f59e0b" opacity="0.48"><title>Game 230: THEORY · payoff 0.0000</title></circle><circle cx="951.70" cy="239.00" r="2.5" fill="#2563eb" opacity="0.48"><title>Game 231: EXPLOIT · payoff 0.5000</title></circle><circle cx="955.44" cy="413.69" r="2.5" fill="#f59e0b" opacity="0.48"><title>Game 232: THEORY · payoff 0.0174</title></circle><circle cx="959.18" cy="331.93" r="2.5" fill="#f59e0b" opacity="0.48"><title>Game 233: THEORY · payoff 0.2433</title></circle><circle cx="962.91" cy="376.67" r="2.5" fill="#f59e0b" opacity="0.48"><title>Game 234: THEORY · payoff 0.1197</title></circle><circle cx="966.65" cy="202.80" r="2.5" fill="#2563eb" opacity="0.48"><title>Game 235: EXPLOIT · payoff 0.6000</title></circle><circle cx="970.39" cy="420.00" r="2.5" fill="#f59e0b" opacity="0.48"><title>Game 236: THEORY · payoff 0.0000</title></circle><circle cx="974.13" cy="420.00" r="2.5" fill="#f59e0b" opacity="0.48"><title>Game 237: THEORY · payoff 0.0000</title></circle><circle cx="977.87" cy="304.16" r="2.5" fill="#f59e0b" opacity="0.48"><title>Game 238: THEORY · payoff 0.3200</title></circle><circle cx="981.60" cy="410.46" r="2.5" fill="#f59e0b" opacity="0.48"><title>Game 239: THEORY · payoff 0.0264</title></circle><circle cx="985.34" cy="420.00" r="2.5" fill="#f59e0b" opacity="0.48"><title>Game 240: THEORY · payoff 0.0000</title></circle><circle cx="989.08" cy="239.00" r="2.5" fill="#f59e0b" opacity="0.48"><title>Game 241: THEORY · payoff 0.5000</title></circle><circle cx="992.82" cy="241.95" r="2.5" fill="#f59e0b" opacity="0.48"><title>Game 242: THEORY · payoff 0.4919</title></circle><circle cx="996.55" cy="251.08" r="2.5" fill="#f59e0b" opacity="0.48"><title>Game 243: THEORY · payoff 0.4666</title></circle><circle cx="1000.29" cy="221.37" r="2.5" fill="#f59e0b" opacity="0.48"><title>Game 244: THEORY · payoff 0.5487</title></circle><circle cx="1004.03" cy="239.00" r="2.5" fill="#f59e0b" opacity="0.48"><title>Game 245: THEORY · payoff 0.5000</title></circle><circle cx="1007.77" cy="260.72" r="2.5" fill="#f59e0b" opacity="0.48"><title>Game 246: THEORY · payoff 0.4400</title></circle><circle cx="1011.51" cy="202.80" r="2.5" fill="#2563eb" opacity="0.48"><title>Game 247: EXPLOIT · payoff 0.6000</title></circle><circle cx="1015.24" cy="420.00" r="2.5" fill="#f59e0b" opacity="0.48"><title>Game 248: THEORY · payoff 0.0000</title></circle><circle cx="1018.98" cy="202.40" r="2.5" fill="#f59e0b" opacity="0.48"><title>Game 249: THEORY · payoff 0.6011</title></circle><circle cx="1022.72" cy="420.00" r="2.5" fill="#f59e0b" opacity="0.48"><title>Game 250: THEORY · payoff 0.0000</title></circle><circle cx="1026.46" cy="58.00" r="2.5" fill="#f59e0b" opacity="0.48"><title>Game 251: THEORY · payoff 1.0000</title></circle><circle cx="1030.19" cy="239.00" r="2.5" fill="#f59e0b" opacity="0.48"><title>Game 252: THEORY · payoff 0.5000</title></circle><circle cx="1033.93" cy="257.10" r="2.5" fill="#2563eb" opacity="0.48"><title>Game 253: EXPLOIT · payoff 0.4500</title></circle><circle cx="1037.67" cy="420.00" r="2.5" fill="#f59e0b" opacity="0.48"><title>Game 254: THEORY · payoff 0.0000</title></circle><circle cx="1041.41" cy="334.67" r="2.5" fill="#f59e0b" opacity="0.48"><title>Game 255: THEORY · payoff 0.2357</title></circle><circle cx="1045.15" cy="218.87" r="2.5" fill="#f59e0b" opacity="0.48"><title>Game 256: THEORY · payoff 0.5556</title></circle><circle cx="1048.88" cy="239.00" r="2.5" fill="#f59e0b" opacity="0.48"><title>Game 257: THEORY · payoff 0.5000</title></circle><circle cx="1052.62" cy="420.00" r="2.5" fill="#f59e0b" opacity="0.48"><title>Game 258: THEORY · payoff 0.0000</title></circle><circle cx="1056.36" cy="278.82" r="2.5" fill="#f59e0b" opacity="0.48"><title>Game 259: THEORY · payoff 0.3900</title></circle><circle cx="1060.10" cy="243.64" r="2.5" fill="#f59e0b" opacity="0.48"><title>Game 260: THEORY · payoff 0.4872</title></circle><circle cx="1063.84" cy="235.38" r="2.5" fill="#2563eb" opacity="0.48"><title>Game 261: EXPLOIT · payoff 0.5100</title></circle><circle cx="1067.57" cy="271.58" r="2.5" fill="#f59e0b" opacity="0.48"><title>Game 262: THEORY · payoff 0.4100</title></circle><circle cx="1071.31" cy="239.00" r="2.5" fill="#2563eb" opacity="0.48"><title>Game 263: EXPLOIT · payoff 0.5000</title></circle><circle cx="1075.05" cy="227.62" r="2.5" fill="#f59e0b" opacity="0.48"><title>Game 264: THEORY · payoff 0.5314</title></circle><circle cx="1078.79" cy="250.58" r="2.5" fill="#2563eb" opacity="0.48"><title>Game 265: EXPLOIT · payoff 0.4680</title></circle><circle cx="1082.52" cy="245.30" r="2.5" fill="#f59e0b" opacity="0.48"><title>Game 266: THEORY · payoff 0.4826</title></circle><circle cx="1086.26" cy="202.80" r="2.5" fill="#2563eb" opacity="0.48"><title>Game 267: EXPLOIT · payoff 0.6000</title></circle><circle cx="1090.00" cy="234.36" r="2.5" fill="#f59e0b" opacity="0.48"><title>Game 268: THEORY · payoff 0.5128</title></circle><polyline points="125.64,264.36 163.02,260.96 200.40,304.43 237.78,306.44 275.15,276.44 312.53,313.69 349.91,285.65 387.29,233.34 424.67,256.27 462.04,304.20 499.42,244.06 536.80,281.56 574.18,315.61 611.56,294.47 648.94,315.71 686.31,279.72 723.69,249.09 761.07,258.24 798.45,279.56 835.83,277.62 873.21,282.35 910.58,275.94 947.96,300.73 985.34,353.87 1022.72,269.83 1060.10,270.91" fill="none" stroke="#7c3aed" stroke-width="2.2" stroke-linejoin="round" stroke-linecap="round"/><polyline points="92.00,283.27 95.74,282.28 99.48,281.36 103.21,290.30 106.95,281.10 110.69,279.60 114.43,277.53 118.16,275.05 121.90,274.94 125.64,272.62 129.38,272.31 133.12,273.79 136.85,268.87 140.59,270.61 144.33,270.62 148.07,271.21 151.81,270.76 155.54,268.71 159.28,268.91 163.02,266.25 166.76,264.49 170.49,262.55 174.23,258.69 177.97,269.10 181.71,267.16 185.45,264.52 189.18,274.56 192.92,277.75 196.66,286.93 200.40,288.98 204.13,287.05 207.87,295.62 211.61,292.58 215.35,288.65 219.09,286.04 222.82,286.62 226.56,295.23 230.30,302.30 234.04,302.43 237.78,297.93 241.51,294.60 245.25,297.00 248.99,294.29 252.73,285.16 256.46,289.27 260.20,285.29 263.94,283.04 267.68,291.88 271.42,297.48 275.15,288.16 278.89,280.31 282.63,289.33 286.37,286.08 290.10,293.32 293.84,301.49 297.58,304.80 301.32,301.17 305.06,295.86 308.79,296.62 312.53,301.04 316.27,302.19 320.01,300.88 323.75,301.56 327.48,298.93 331.22,295.99 334.96,296.52 338.70,304.49 342.43,301.66 346.17,297.62 349.91,291.73 353.65,288.91 357.39,275.98 361.12,274.41 364.86,272.32 368.60,264.33 372.34,274.37 376.07,266.95 379.81,267.48 383.55,264.27 387.29,265.44 391.03,263.29 394.76,266.21 398.50,259.45 402.24,256.02 405.98,250.25 409.72,249.12 413.45,258.28 417.19,259.15 420.93,257.85 424.67,264.00 428.40,262.80 432.14,272.94 435.88,277.56 439.62,286.75 443.36,284.42 447.09,280.90 450.83,288.01 454.57,284.85 458.31,283.75 462.04,280.52 465.78,275.51 469.52,275.07 473.26,283.49 477.00,283.04 480.73,277.38 484.47,274.60 488.21,269.82 491.95,256.15 495.69,256.45 499.42,261.72 503.16,260.25 506.90,266.22 510.64,262.13 514.37,272.32 518.11,275.07 521.85,269.27 525.59,267.32 529.33,267.56 533.06,266.18 536.80,271.24 540.54,278.97 544.28,271.67 548.01,281.24 551.75,290.20 555.49,287.36 559.23,281.61 562.97,284.98 566.70,287.17 570.44,284.25 574.18,293.01 577.92,284.38 581.66,285.49 585.39,294.17 589.13,296.78 592.87,293.80 596.61,290.27 600.34,298.64 604.08,305.30 607.82,296.35 611.56,293.43 615.30,282.91 619.03,290.78 622.77,289.77 626.51,286.03 630.25,291.06 633.99,294.94 637.72,299.08 641.46,306.88 645.20,302.80 648.94,307.58 652.67,306.78 656.41,313.84 660.15,320.69 663.89,315.01 667.63,298.43 671.36,295.46 675.10,303.50 678.84,298.85 682.58,296.16 686.31,290.86 690.05,287.52 693.79,278.66 697.53,275.58 701.27,284.90 705.00,279.82 708.74,276.78 712.48,274.65 716.22,273.08 719.96,270.88 723.69,271.39 727.43,280.98 731.17,273.02 734.91,268.96 738.64,268.89 742.38,255.28 746.12,265.91 749.86,275.53 753.60,271.31 757.33,264.56 761.07,264.08 764.81,274.13 768.55,273.98 772.28,270.56 776.02,275.29 779.76,273.53 783.50,278.12 787.24,277.81 790.97,279.80 794.71,265.49 798.45,268.13 802.19,261.58 805.93,257.44 809.66,263.06 813.40,265.02 817.14,263.34 820.88,268.77 824.61,276.66 828.35,274.23 832.09,271.96 835.83,274.97 839.57,284.33 843.30,278.16 847.04,279.14 850.78,277.33 854.52,276.26 858.25,273.85 861.99,270.31 865.73,273.33 869.47,282.38 873.21,278.42 876.94,276.32 880.68,273.12 884.42,272.56 888.16,258.72 891.90,257.44 895.63,259.88 899.37,262.97 903.11,273.10 906.85,282.58 910.58,282.57 914.32,268.08 918.06,266.32 921.80,264.56 925.54,274.59 929.27,272.87 933.01,270.28 936.75,272.76 940.49,282.26 944.22,291.15 947.96,299.46 951.70,295.56 955.44,303.18 959.18,305.04 962.91,309.66 966.65,302.76 970.39,310.33 974.13,317.40 977.87,316.55 981.60,322.61 985.34,328.89 989.08,323.09 992.82,317.86 996.55,313.55 1000.29,307.60 1004.03,303.17 1007.77,300.44 1011.51,294.14 1015.24,302.26 1018.98,295.81 1022.72,303.83 1026.46,287.97 1030.19,284.81 1033.93,283.02 1037.67,291.86 1041.41,294.62 1045.15,289.73 1048.88,286.46 1052.62,295.08 1056.36,294.03 1060.10,290.78 1063.84,287.20 1067.57,286.19 1071.31,283.15 1075.05,279.57 1078.79,277.70 1082.52,275.61 1086.26,270.91 1090.00,268.55" fill="none" stroke="#111827" stroke-width="3.2" stroke-linejoin="round" stroke-linecap="round"/><polyline points="275.15,282.52 278.89,280.19 282.63,283.23 286.37,282.65 290.10,282.22 293.84,287.67 297.58,289.57 301.32,289.59 305.06,289.18 308.79,289.87 312.53,292.39 316.27,293.41 320.01,293.14 323.75,295.42 327.48,294.72 331.22,294.37 334.96,294.86 338.70,297.98 342.43,298.41 346.17,297.76 349.91,297.33 353.65,297.51 357.39,294.59 361.12,295.57 364.86,292.01 368.60,290.20 372.34,294.07 376.07,288.86 379.81,287.88 383.55,283.83 387.29,283.11 391.03,282.57 394.76,280.34 398.50,278.60 402.24,278.09 405.98,276.46 409.72,275.21 413.45,274.63 417.19,271.97 420.93,270.67 424.67,273.08 428.40,273.06 432.14,274.82 435.88,276.62 439.62,281.96 443.36,279.99 447.09,280.04 450.83,282.85 454.57,279.23 458.31,277.01 462.04,278.63 465.78,279.35 469.52,276.33 473.26,279.66 477.00,277.22 480.73,272.73 484.47,270.36 488.21,269.40 491.95,266.18 495.69,265.24 499.42,264.70 503.16,263.11 506.90,264.52 510.64,262.35 514.37,265.54 518.11,266.77 521.85,264.39 525.59,260.77 529.33,260.98 533.06,261.12 536.80,263.89 540.54,266.75 544.28,268.29 548.01,271.66 551.75,275.22 555.49,277.18 559.23,272.74 562.97,276.23 566.70,277.11 570.44,277.59 574.18,280.34 577.92,278.89 581.66,278.75 585.39,283.92 589.13,286.48 592.87,288.16 596.61,288.29 600.34,288.87 604.08,291.47 607.82,290.02 611.56,287.98 615.30,285.68 619.03,285.38 622.77,283.99 626.51,280.23 630.25,282.50 633.99,284.92 637.72,284.28 641.46,287.90 645.20,287.42 648.94,290.28 652.67,292.13 656.41,295.08 660.15,295.36 663.89,294.49 667.63,291.74 671.36,292.11 675.10,296.50 678.84,299.97 682.58,299.89 686.31,297.41 690.05,297.41 693.79,293.36 697.53,293.92 701.27,293.92 705.00,291.75 708.74,292.70 712.48,292.79 716.22,292.38 719.96,292.23 723.69,290.92 727.43,291.50 731.17,291.33 734.91,287.13 738.64,284.09 742.38,280.33 746.12,284.76 749.86,286.39 753.60,284.21 757.33,282.70 761.07,279.45 764.81,284.66 768.55,284.06 772.28,280.08 776.02,280.27 779.76,280.22 783.50,282.33 787.24,279.40 790.97,277.53 794.71,275.36 798.45,276.46 802.19,277.19 805.93,273.04 809.66,274.43 813.40,275.66 817.14,273.16 820.88,273.09 824.61,273.72 828.35,270.10 832.09,270.01 835.83,268.85 839.57,271.34 843.30,266.80 847.04,264.26 850.78,264.63 854.52,268.69 858.25,268.42 861.99,264.39 865.73,266.11 869.47,269.24 873.21,269.37 876.94,269.51 880.68,271.04 884.42,271.71 888.16,264.47 891.90,265.13 895.63,266.38 899.37,267.66 903.11,271.05 906.85,274.67 910.58,274.74 914.32,267.50 918.06,269.17 921.80,269.75 925.54,272.79 929.27,276.59 933.01,272.84 936.75,270.72 940.49,274.92 944.22,279.98 947.96,283.24 951.70,279.62 955.44,282.46 959.18,284.68 962.91,285.34 966.65,284.43 970.39,285.94 974.13,288.87 977.87,288.78 981.60,295.83 985.34,298.10 989.08,299.55 992.82,300.44 996.55,298.57 1000.29,297.13 1004.03,297.13 1007.77,295.39 1011.51,291.63 1015.24,295.25 1018.98,294.52 1022.72,296.54 1026.46,289.30 1030.19,290.31 1033.93,289.58 1037.67,292.96 1041.41,294.44 1045.15,294.04 1048.88,294.44 1052.62,296.50 1056.36,293.80 1060.10,294.26 1063.84,294.05 1067.57,294.94 1071.31,294.43 1075.05,297.83 1078.79,298.06 1082.52,297.06 1086.26,294.96 1090.00,291.25" fill="none" stroke="#059669" stroke-width="2.2" stroke-linejoin="round" stroke-linecap="round" stroke-dasharray="7,5"/><circle cx="112" cy="461" r="5" fill="#f59e0b"/><text x="131" y="465" font-family="system-ui,sans-serif" font-size="11" fill="#111827">THEORY game</text><circle cx="242" cy="461" r="5" fill="#2563eb"/><text x="261" y="465" font-family="system-ui,sans-serif" font-size="11" fill="#111827">EXPLOIT game</text><line x1="370" y1="461" x2="394" y2="461" stroke="#7c3aed" stroke-width="3"/><text x="401" y="465" font-family="system-ui,sans-serif" font-size="11" fill="#111827">10-game block mean</text><line x1="555" y1="461" x2="579" y2="461" stroke="#111827" stroke-width="3"/><text x="586" y="465" font-family="system-ui,sans-serif" font-size="11" fill="#111827">EWMA span 30</text><line x1="710" y1="461" x2="734" y2="461" stroke="#059669" stroke-width="3" stroke-dasharray="7,5"/><text x="741" y="465" font-family="system-ui,sans-serif" font-size="11" fill="#111827">rolling 50</text></svg>