<svg xmlns="http://www.w3.org/2000/svg" width="1120" height="520" viewBox="0 0 1120 520"><rect width="100%" height="100%" fill="#fcfcfd"/><text x="24" y="31" font-family="system-ui,sans-serif" font-size="20" font-weight="700" fill="#111827">Persuasion authenticated leaderboard rating</text><line x1="92" y1="420.00" x2="1090" y2="420.00" stroke="#dbe3ee" stroke-width="1"/><text x="82" y="424.00" text-anchor="end" font-family="system-ui,sans-serif" font-size="12" fill="#64748b">1,660</text><line x1="92" y1="329.50" x2="1090" y2="329.50" stroke="#dbe3ee" stroke-width="1"/><text x="82" y="333.50" text-anchor="end" font-family="system-ui,sans-serif" font-size="12" fill="#64748b">1,680</text><line x1="92" y1="239.00" x2="1090" y2="239.00" stroke="#dbe3ee" stroke-width="1"/><text x="82" y="243.00" text-anchor="end" font-family="system-ui,sans-serif" font-size="12" fill="#64748b">1,700</text><line x1="92" y1="148.50" x2="1090" y2="148.50" stroke="#dbe3ee" stroke-width="1"/><text x="82" y="152.50" text-anchor="end" font-family="system-ui,sans-serif" font-size="12" fill="#64748b">1,720</text><line x1="92" y1="58.00" x2="1090" y2="58.00" stroke="#dbe3ee" stroke-width="1"/><text x="82" y="62.00" text-anchor="end" font-family="system-ui,sans-serif" font-size="12" fill="#64748b">1,740</text><line x1="92.00" y1="420" x2="92.00" y2="425" stroke="#64748b"/><text x="92.00" y="441" text-anchor="middle" font-family="system-ui,sans-serif" font-size="11" fill="#64748b">1</text><line x1="251.68" y1="420" x2="251.68" y2="425" stroke="#64748b"/><text x="251.68" y="441" text-anchor="middle" font-family="system-ui,sans-serif" font-size="11" fill="#64748b">5</text><line x1="451.28" y1="420" x2="451.28" y2="425" stroke="#64748b"/><text x="451.28" y="441" text-anchor="middle" font-family="system-ui,sans-serif" font-size="11" fill="#64748b">10</text><line x1="650.88" y1="420" x2="650.88" y2="425" stroke="#64748b"/><text x="650.88" y="441" text-anchor="middle" font-family="system-ui,sans-serif" font-size="11" fill="#64748b">15</text><line x1="850.48" y1="420" x2="850.48" y2="425" stroke="#64748b"/><text x="850.48" y="441" text-anchor="middle" font-family="system-ui,sans-serif" font-size="11" fill="#64748b">20</text><line x1="1050.08" y1="420" x2="1050.08" y2="425" stroke="#64748b"/><text x="1050.08" y="441" text-anchor="middle" font-family="system-ui,sans-serif" font-size="11" fill="#64748b">25</text><line x1="1090.00" y1="420" x2="1090.00" y2="425" stroke="#64748b"/><text x="1090.00" y="441" text-anchor="middle" font-family="system-ui,sans-serif" font-size="11" fill="#64748b">26</text><line x1="92" y1="58" x2="92" y2="420" stroke="#64748b"/><line x1="92" y1="420" x2="1090" y2="420" stroke="#64748b"/><text x="591.00" y="502" text-anchor="middle" font-family="system-ui,sans-serif" font-size="13" fill="#64748b">Games played</text><text x="22" y="239.00" text-anchor="middle" transform="rotate(-90 22 239.00)" font-family="system-ui,sans-serif" font-size="13" fill="#64748b">Leaderboard rating</text><circle cx="92.00" cy="299.91" r="3.3" fill="#2563eb" opacity="0.82"><title>Game 1: EXPLOIT · rating 1686.54</title></circle><circle cx="131.92" cy="308.05" r="3.3" fill="#2563eb" opacity="0.82"><title>Game 2: EXPLOIT · rating 1684.74</title></circle><circle cx="171.84" cy="322.76" r="3.3" fill="#2563eb" opacity="0.82"><title>Game 3: EXPLOIT · rating 1681.49</title></circle><circle cx="211.76" cy="330.99" r="3.3" fill="#2563eb" opacity="0.82"><title>Game 4: EXPLOIT · rating 1679.67</title></circle><circle cx="251.68" cy="305.70" r="3.3" fill="#2563eb" opacity="0.82"><title>Game 5: EXPLOIT · rating 1685.26</title></circle><circle cx="291.60" cy="267.87" r="3.3" fill="#2563eb" opacity="0.82"><title>Game 6: EXPLOIT · rating 1693.62</title></circle><circle cx="331.52" cy="284.34" r="3.3" fill="#2563eb" opacity="0.82"><title>Game 7: EXPLOIT · rating 1689.98</title></circle><circle cx="371.44" cy="274.11" r="3.3" fill="#2563eb" opacity="0.82"><title>Game 8: EXPLOIT · rating 1692.24</title></circle><circle cx="411.36" cy="261.40" r="3.3" fill="#2563eb" opacity="0.82"><title>Game 9: EXPLOIT · rating 1695.05</title></circle><circle cx="451.28" cy="235.47" r="3.3" fill="#2563eb" opacity="0.82"><title>Game 10: EXPLOIT · rating 1700.78</title></circle><circle cx="491.20" cy="231.04" r="3.3" fill="#2563eb" opacity="0.82"><title>Game 11: EXPLOIT · rating 1701.76</title></circle><circle cx="531.12" cy="200.40" r="3.3" fill="#2563eb" opacity="0.82"><title>Game 12: EXPLOIT · rating 1708.53</title></circle><circle cx="571.04" cy="177.60" r="3.3" fill="#2563eb" opacity="0.82"><title>Game 13: EXPLOIT · rating 1713.57</title></circle><circle cx="610.96" cy="204.07" r="3.3" fill="#2563eb" opacity="0.82"><title>Game 14: EXPLOIT · rating 1707.72</title></circle><circle cx="650.88" cy="172.80" r="3.3" fill="#2563eb" opacity="0.82"><title>Game 15: EXPLOIT · rating 1714.63</title></circle><circle cx="690.80" cy="149.41" r="3.3" fill="#2563eb" opacity="0.82"><title>Game 16: EXPLOIT · rating 1719.80</title></circle><circle cx="730.72" cy="154.74" r="3.3" fill="#2563eb" opacity="0.82"><title>Game 17: EXPLOIT · rating 1718.62</title></circle><circle cx="770.64" cy="155.97" r="3.3" fill="#2563eb" opacity="0.82"><title>Game 18: EXPLOIT · rating 1718.35</title></circle><circle cx="810.56" cy="160.08" r="3.3" fill="#2563eb" opacity="0.82"><title>Game 19: EXPLOIT · rating 1717.44</title></circle><circle cx="850.48" cy="152.12" r="3.3" fill="#2563eb" opacity="0.82"><title>Game 20: EXPLOIT · rating 1719.20</title></circle><circle cx="890.40" cy="173.16" r="3.3" fill="#2563eb" opacity="0.82"><title>Game 21: EXPLOIT · rating 1714.55</title></circle><circle cx="930.32" cy="179.45" r="3.3" fill="#2563eb" opacity="0.82"><title>Game 22: EXPLOIT · rating 1713.16</title></circle><circle cx="970.24" cy="176.06" r="3.3" fill="#2563eb" opacity="0.82"><title>Game 23: EXPLOIT · rating 1713.91</title></circle><circle cx="1010.16" cy="199.81" r="3.3" fill="#2563eb" opacity="0.82"><title>Game 24: EXPLOIT · rating 1708.66</title></circle><circle cx="1050.08" cy="176.10" r="3.3" fill="#2563eb" opacity="0.82"><title>Game 25: EXPLOIT · rating 1713.90</title></circle><circle cx="1090.00" cy="185.24" r="3.3" fill="#2563eb" opacity="0.82"><title>Game 26: EXPLOIT · rating 1711.88</title></circle><polyline points="92.00,299.91 131.92,300.30 171.84,301.40 211.76,302.84 251.68,302.98 291.60,301.27 331.52,300.44 371.44,299.16 411.36,297.32 451.28,294.30 491.20,291.21 531.12,286.78 571.04,281.46 610.96,277.68 650.88,272.57 690.80,266.56 730.72,261.10 770.64,255.98 810.56,251.30 850.48,246.46 890.40,242.88 930.32,239.79 970.24,236.68 1010.16,234.88 1050.08,232.02 1090.00,229.73" fill="none" stroke="#111827" stroke-width="3.2" stroke-linejoin="round" stroke-linecap="round"/><circle cx="112" cy="461" r="5" fill="#f59e0b"/><text x="131" y="465" font-family="system-ui,sans-serif" font-size="11" fill="#111827">THEORY game</text><circle cx="257" cy="461" r="5" fill="#2563eb"/><text x="276" y="465" font-family="system-ui,sans-serif" font-size="11" fill="#111827">EXPLOIT game</text><line x1="395" y1="461" x2="419" y2="461" stroke="#111827" stroke-width="3"/><text x="426" y="465" font-family="system-ui,sans-serif" font-size="11" fill="#111827">EWMA span 40</text></svg>